<?xml version="1.0" standalone="no"?>
<!DOCTYPE svg PUBLIC "-//W3C//DTD SVG 20010904//EN"
 "http://www.w3.org/TR/2001/REC-SVG-20010904/DTD/svg10.dtd">
<svg version="1.0" xmlns="http://www.w3.org/2000/svg"
 width="619.000000pt" height="619.000000pt" viewBox="0 0 619.000000 619.000000"
 preserveAspectRatio="xMidYMid meet">
<metadata>
Created by potrace 1.11, written by Peter Selinger 2001-2013
</metadata>
<g transform="translate(0.000000,619.000000) scale(0.100000,-0.100000)"
fill="#000000" stroke="none">
<path d="M0 3095 l0 -3095 3095 0 3095 0 0 3095 0 3095 -3095 0 -3095 0 0
-3095z m3430 2114 c47 -16 91 -37 98 -46 15 -20 16 -67 2 -93 -9 -16 -8 -18 5
-13 9 3 29 -4 45 -16 16 -11 36 -21 44 -21 8 0 27 -5 41 -12 42 -19 101 7 170
74 61 59 100 73 123 46 9 -12 21 -111 21 -186 0 -33 -34 -112 -49 -112 -5 0
-6 -9 -3 -20 3 -11 0 -20 -6 -20 -6 0 -11 14 -11 31 0 72 -46 91 -95 39 -16
-16 -37 -30 -46 -30 -10 0 -21 -4 -24 -10 -3 -5 -12 -10 -20 -10 -9 0 -15 15
-17 47 -2 38 -7 49 -22 51 -10 2 -23 -3 -28 -12 -12 -22 -103 -23 -95 -2 3 8
-1 20 -9 27 -12 10 -18 9 -32 -6 -9 -10 -11 -14 -3 -10 10 6 12 0 7 -31 -4
-23 -2 -45 5 -54 9 -13 10 -12 5 3 -3 9 -2 17 2 17 10 0 42 -76 42 -100 0 -23
45 -39 62 -22 15 15 38 4 31 -15 -3 -8 4 -24 15 -36 79 -81 99 -104 103 -116
7 -20 29 -4 29 20 0 10 4 19 8 19 14 0 44 -25 42 -35 -5 -24 2 -33 27 -39 14
-4 35 -18 45 -32 11 -13 25 -24 32 -24 7 0 19 -11 26 -25 7 -13 17 -22 21 -19
5 3 16 1 25 -4 14 -8 11 -10 -15 -14 -24 -3 -38 1 -57 19 -22 21 -29 22 -69
13 -57 -13 -75 -5 -75 31 0 18 -5 29 -14 29 -21 0 -34 -22 -38 -65 -3 -39 -2
-40 35 -49 36 -9 42 -18 38 -57 -1 -9 5 -19 12 -22 17 -6 11 -51 -8 -67 -11
-9 -12 -7 -8 9 8 30 -14 51 -53 51 -40 0 -44 12 -9 28 14 6 25 19 25 27 0 13
-4 14 -21 5 -17 -10 -21 -8 -25 7 -6 22 -63 46 -87 37 -10 -3 -18 2 -22 15 -7
24 -21 27 -28 9 -4 -8 -6 -9 -6 -2 -1 6 6 17 14 24 16 13 21 45 6 35 -5 -3
-13 0 -16 6 -5 6 -22 8 -49 4 -56 -10 -73 -20 -80 -50 -4 -14 -13 -25 -20 -25
-9 0 -16 -17 -20 -43 -6 -41 -9 -44 -37 -44 -34 0 -52 -18 -45 -45 5 -20 -2
-22 -24 -8 -12 7 -12 14 -2 44 18 48 7 64 -24 35 -20 -19 -24 -20 -24 -6 0 29
36 40 66 20 25 -16 27 -16 40 2 18 25 18 45 -1 45 -21 0 -19 41 3 46 17 5 24
48 10 70 -4 6 2 18 13 28 20 17 21 17 14 -3 -5 -15 -2 -21 9 -21 13 0 16 9 13
38 -2 29 -7 37 -22 37 -11 0 -28 12 -38 28 -17 25 -29 31 -49 28 -5 0 -8 6 -8
14 0 8 6 12 14 9 24 -9 101 79 91 104 -6 15 -8 14 -16 -5 -10 -28 -21 -29 -44
-3 -20 22 -65 27 -65 8 0 -7 -5 -5 -11 5 -6 10 -8 25 -5 33 3 8 1 14 -4 14 -5
0 -3 12 5 28 7 15 17 40 22 56 4 16 15 32 23 36 8 4 25 12 37 18 13 7 30 12
38 12 8 0 15 7 15 16 0 14 -3 14 -15 4 -22 -19 -39 1 -37 43 1 26 -6 41 -29
63 -27 26 -38 29 -92 29 -53 0 -62 3 -65 20 -3 11 -12 25 -21 32 -15 12 -14
14 4 26 52 32 110 29 235 -14z m-683 -33 c-6 -17 -27 -18 -33 -2 -3 9 -3 24 1
34 6 16 7 16 21 -3 8 -10 13 -24 11 -29z m403 29 c14 -16 9 -20 -42 -28 -29
-4 -54 15 -43 33 9 15 71 12 85 -5z m-554 -16 c3 -6 8 -32 10 -57 2 -27 11
-52 21 -61 18 -16 98 -41 133 -41 36 0 58 -37 57 -93 -2 -44 1 -52 18 -56 17
-3 18 -1 6 13 -12 15 -12 19 0 32 13 12 18 12 37 -6 22 -21 36 -62 47 -142 4
-32 11 -48 20 -48 15 0 35 -30 35 -52 -1 -30 -19 -42 -64 -39 -36 1 -50 -3
-68 -21 -12 -12 -27 -23 -33 -24 -5 0 -22 -2 -37 -2 -21 -2 -28 -7 -28 -22 0
-11 7 -20 15 -20 8 0 15 -4 15 -10 0 -5 -9 -10 -20 -10 -11 0 -20 -4 -20 -9 0
-5 -7 -12 -16 -15 -13 -5 -15 -1 -11 20 5 27 0 28 -46 9 -15 -6 -18 -3 -15 21
3 25 0 29 -19 27 -21 -3 -29 8 -23 32 1 6 2 37 1 70 -2 57 -1 59 15 43 14 -14
15 -22 7 -41 -15 -32 -4 -45 32 -43 48 2 58 13 39 41 -13 20 -14 30 -4 60 8
25 17 35 28 33 10 -2 17 -11 17 -20 0 -22 10 -30 41 -34 21 -2 25 1 21 16 -3
13 1 21 14 25 10 4 19 11 19 17 0 5 -7 7 -15 4 -9 -3 -18 1 -21 9 -4 8 -10 13
-15 10 -15 -10 -47 18 -41 34 5 14 3 14 -11 3 -9 -8 -19 -22 -22 -32 -8 -24
-82 -60 -124 -60 -28 0 -33 -3 -28 -20 6 -22 -14 -42 -40 -40 -32 4 -43 0 -43
-13 0 -20 -35 -48 -52 -42 -8 3 -13 16 -12 28 1 12 3 30 3 39 1 9 19 29 41 45
24 17 40 36 40 49 0 21 38 78 81 120 30 30 19 92 -22 121 -9 7 -21 25 -28 40
-6 16 -22 33 -34 38 -33 15 -28 48 8 55 17 4 40 12 50 18 25 14 32 15 41 1z
m-400 -206 c21 -27 28 -63 18 -92 -7 -19 -18 -27 -46 -32 -20 -3 -50 -17 -67
-31 -17 -15 -44 -29 -60 -33 -23 -5 -35 -16 -48 -46 -9 -21 -22 -39 -29 -39
-14 0 -54 -60 -54 -82 0 -8 -7 -29 -16 -46 -12 -24 -22 -32 -42 -32 -53 0 -77
41 -84 137 -5 75 -18 103 -47 103 -25 0 -41 20 -41 50 0 51 45 66 90 30 52
-40 120 -15 120 45 0 83 51 113 79 48 14 -31 45 -45 53 -23 2 5 21 23 43 40
33 25 47 30 78 26 21 -2 45 -13 53 -23z m2255 -275 c34 -18 72 -40 83 -51 12
-10 34 -28 50 -41 24 -19 27 -27 22 -53 -10 -44 -42 -50 -78 -16 -44 42 -36 4
15 -67 23 -33 54 -82 68 -108 19 -35 37 -52 72 -69 35 -17 52 -33 68 -65 12
-24 27 -50 33 -58 15 -19 53 -116 61 -157 3 -17 13 -37 21 -44 15 -13 38 -58
49 -99 4 -14 23 -53 42 -87 27 -49 41 -64 69 -73 50 -17 59 -40 43 -111 -7
-33 -16 -60 -19 -60 -3 -1 -14 -3 -25 -4 -11 -1 -36 -9 -55 -17 -20 -8 -53
-13 -77 -10 l-42 4 6 43 c3 25 1 45 -5 49 -7 4 -7 15 1 35 9 25 7 32 -16 55
-28 28 -35 60 -17 71 7 4 9 24 5 48 -3 23 -2 62 3 87 14 77 -24 124 -92 116
-59 -7 -71 -14 -73 -42 -1 -32 -20 -47 -48 -38 -48 14 -74 15 -96 3 -13 -7
-44 -14 -69 -15 -67 -2 -70 -3 -70 -19 0 -29 -19 -14 -26 20 -3 20 -12 35 -20
35 -18 0 -18 34 0 85 13 36 22 44 68 59 14 4 15 11 8 35 -10 34 10 61 33 44
16 -14 85 -24 92 -14 6 11 -31 115 -44 119 -5 2 -18 -5 -28 -15 -26 -24 -132
-75 -144 -68 -15 10 -10 24 26 73 43 56 42 83 -2 94 -18 5 -33 13 -33 19 0 5
-12 14 -26 19 -22 9 -25 15 -20 38 5 20 4 23 -4 12 -10 -15 -14 -8 -11 22 1 9
-3 19 -8 23 -6 3 -8 0 -5 -8 3 -8 1 -18 -4 -21 -6 -3 -13 5 -16 19 -4 16 -13
25 -26 25 -11 0 -24 8 -29 18 -8 16 -3 22 35 40 31 15 44 28 44 43 0 26 52 79
78 79 11 0 25 7 32 15 18 21 30 19 101 -17z m-2301 -43 c7 -8 25 -15 40 -15
36 0 54 -23 47 -60 -8 -37 10 -50 32 -22 9 12 30 24 47 27 26 4 35 0 48 -20
24 -36 20 -41 -31 -39 -53 1 -84 -17 -76 -45 7 -26 -15 -36 -36 -17 -17 15
-20 15 -44 -4 -14 -11 -31 -20 -39 -20 -26 0 -58 -31 -58 -56 0 -17 -5 -24
-19 -24 -32 0 -32 -14 0 -44 17 -16 28 -35 25 -42 -3 -7 2 -21 11 -29 8 -9 13
-18 11 -21 -3 -2 -11 2 -18 11 -7 8 -19 15 -27 15 -8 0 -11 5 -7 12 5 7 3 8
-5 4 -7 -5 -28 -8 -47 -8 -40 0 -47 -8 -35 -41 12 -32 -11 -67 -44 -67 -14 0
-29 -8 -35 -19 -12 -23 -1 -34 20 -20 24 15 30 11 30 -21 0 -20 5 -30 15 -30
8 0 15 -4 15 -8 0 -16 -24 -32 -48 -32 -22 0 -22 -1 -8 -22 21 -29 20 -37 -3
-31 -10 3 -29 0 -41 -7 -15 -8 -25 -8 -34 -1 -7 6 -25 9 -42 8 -31 -2 -30 -6
-20 77 5 33 23 48 49 40 14 -4 17 1 17 36 0 33 4 43 20 47 11 3 20 9 20 14 0
5 7 9 16 9 10 0 14 6 10 15 -3 8 -2 15 3 15 5 0 9 6 8 13 -1 46 5 58 38 74 52
25 81 93 53 121 -9 9 -17 7 -34 -9 l-22 -20 -10 30 c-6 17 -17 31 -25 31 -20
0 -30 29 -16 46 18 21 47 17 55 -8 l7 -23 11 25 c6 14 23 37 38 52 18 17 23
28 15 32 -7 2 -1 4 13 3 20 -2 29 6 45 41 20 44 43 53 65 27z m507 -147 c18
-18 33 -35 33 -39 0 -4 -18 -9 -41 -11 -38 -3 -40 -2 -34 20 3 13 2 21 -3 18
-4 -2 -14 0 -22 5 -13 8 -12 12 4 24 26 20 25 20 63 -17z m143 -39 c0 -11 -4
-17 -10 -14 -5 3 -10 13 -10 21 0 8 5 14 10 14 6 0 10 -9 10 -21z m-33 -38
c17 -22 16 -43 -2 -67 -14 -18 -14 -17 -9 14 6 27 2 36 -20 53 -14 11 -26 25
-26 30 0 12 41 -9 57 -30z m-47 -16 c0 -1 -6 -8 -14 -14 -11 -9 -15 -7 -19 8
-3 14 0 17 14 14 11 -3 19 -7 19 -8z m214 -1 c7 -18 0 -34 -15 -34 -5 0 -9 9
-9 19 0 11 -6 22 -12 24 -7 3 -3 6 8 6 12 1 25 -6 28 -15z m-1021 -51 c-5 -48
-9 -51 -32 -22 -15 18 -16 27 -7 41 6 10 18 18 27 18 13 0 15 -8 12 -37z
m-561 -23 c28 0 58 -18 58 -35 0 -8 9 -13 20 -12 11 1 20 6 20 11 0 23 45 56
76 56 39 0 94 -42 94 -73 0 -27 -38 -67 -65 -67 -32 0 -115 -63 -115 -88 0
-23 -25 -7 -28 18 -6 37 8 108 21 113 7 2 1 2 -13 0 -28 -4 -70 -32 -81 -54
-4 -7 -14 -34 -21 -59 -12 -42 -15 -45 -51 -48 -32 -3 -38 0 -47 24 -8 20 -7
32 5 50 19 29 19 71 0 104 -23 40 -19 73 11 91 25 16 29 15 62 -7 19 -13 43
-24 54 -24z m487 36 c9 -10 7 -21 -6 -45 -30 -52 -59 -37 -47 24 7 37 31 47
53 21z m851 -37 c0 -5 -7 -9 -15 -9 -9 0 -12 6 -9 15 6 15 24 11 24 -6z m299
-13 c9 -10 8 -15 -3 -19 -8 -3 -16 2 -19 14 -6 22 6 25 22 5z m1815 -5 c22
-25 17 -65 -8 -69 -35 -7 -66 68 -33 81 20 9 23 8 41 -12z m-688 -38 c-10 -10
-19 5 -10 18 6 11 8 11 12 0 2 -7 1 -15 -2 -18z m133 -8 c11 -19 25 -35 31
-35 6 0 8 -4 5 -10 -3 -5 -15 -10 -26 -10 -16 0 -19 -7 -17 -38 1 -47 -7 -62
-34 -62 -18 0 -20 4 -14 41 4 27 2 46 -5 56 -14 16 -21 61 -14 81 9 26 52 13
74 -23z m-1298 -5 c10 0 19 -7 19 -15 0 -8 11 -17 24 -21 14 -3 32 -14 42 -25
10 -11 34 -22 54 -25 30 -5 37 -10 33 -24 -3 -12 4 -22 26 -31 30 -13 51 -56
33 -68 -5 -3 -17 -21 -26 -40 -18 -33 -21 -34 -76 -20 -10 3 -16 -5 -18 -23
-2 -16 -8 -28 -14 -28 -6 0 -8 10 -4 25 4 14 2 25 -4 25 -5 0 -10 -6 -10 -13
0 -7 -9 -23 -20 -35 -22 -23 -26 -42 -10 -42 6 0 10 7 10 15 0 8 7 15 15 15
18 0 20 -26 3 -33 -7 -3 2 -3 20 0 50 9 38 -13 -15 -27 -27 -7 -49 -14 -51
-15 -7 -5 32 -67 49 -75 24 -13 24 -32 0 -54 -19 -17 -20 -17 -23 6 -2 18 -8
22 -27 20 -24 -4 -24 -4 -7 22 16 25 16 28 -1 56 -9 17 -21 30 -25 30 -4 0 -8
7 -8 16 0 9 -5 12 -12 8 -8 -5 -9 0 -6 14 8 28 -13 29 -30 2 -7 -11 -17 -20
-23 -20 -8 0 -8 4 0 14 14 17 -2 31 -24 22 -20 -7 -45 3 -45 19 0 7 6 15 14
18 8 3 17 19 21 36 4 17 11 31 16 31 6 0 7 -9 4 -20 -4 -11 -2 -20 4 -20 6 0
11 7 11 15 0 8 7 15 15 15 9 0 18 7 22 15 5 14 8 14 28 1 30 -20 115 -32 115
-16 0 6 -9 14 -21 17 -11 3 -17 9 -12 12 5 3 17 21 26 40 14 27 15 36 5 43
-10 6 -10 10 1 17 12 8 13 12 1 25 -7 9 -15 14 -17 12 -3 -3 -14 4 -26 15 -49
46 -99 -1 -79 -74 13 -48 1 -65 -35 -51 -27 10 -40 7 -73 -14 -2 -2 2 -7 10
-12 11 -7 11 -11 1 -24 -13 -16 -49 -18 -68 -4 -13 10 -53 -7 -53 -22 0 -6 15
-10 34 -10 22 0 36 -6 40 -16 10 -26 -4 -37 -25 -18 -15 13 -22 14 -33 5 -11
-10 -16 -9 -24 5 -6 10 -16 15 -26 11 -23 -9 -20 4 9 35 25 28 33 44 15 33 -5
-3 -10 -2 -10 4 0 6 9 15 20 21 18 10 24 7 21 -12 0 -5 5 -8 13 -8 8 0 21 -3
30 -6 11 -4 16 0 16 15 0 14 -5 19 -15 15 -18 -7 -20 7 -3 24 9 9 9 15 0 24
-9 9 -16 7 -32 -7 -24 -22 -26 -9 -4 23 8 12 23 22 33 22 22 0 36 -27 18 -33
-7 -2 -4 -8 9 -15 27 -15 53 0 35 21 -8 10 -9 17 -1 22 15 9 12 41 -5 55 -12
10 -21 10 -42 1 -35 -16 -39 -8 -10 21 24 24 24 24 48 5 23 -19 24 -19 38 2 7
12 20 21 28 21 9 0 13 6 10 14 -4 9 1 16 11 18 9 2 18 -2 20 -9 2 -7 12 -13
23 -13z m-1131 -4 c0 -8 16 -17 35 -20 41 -8 44 -24 9 -50 -20 -14 -28 -16
-34 -6 -4 6 -11 11 -16 11 -5 -1 -10 19 -11 44 -1 26 2 43 8 40 5 -4 9 -12 9
-19z m1027 9 c0 -8 -6 -16 -13 -19 -7 -3 -10 2 -7 15 6 22 20 26 20 4z m213
11 c0 -3 -4 -8 -10 -11 -5 -3 -10 -1 -10 4 0 6 5 11 10 11 6 0 10 -2 10 -4z
m365 -5 c3 -5 1 -12 -5 -16 -5 -3 -10 1 -10 9 0 18 6 21 15 7z m1545 -32 c0
-25 -33 -22 -38 4 -2 12 3 17 17 17 15 0 21 -6 21 -21z m-1642 -6 c-2 -9 -11
-17 -20 -19 -14 -2 -15 1 -5 17 15 23 30 25 25 2z m627 -3 c-5 -16 -2 -20 14
-20 12 0 21 -4 21 -10 0 -5 -9 -10 -20 -10 -31 0 -24 -14 16 -33 41 -20 40
-41 -2 -45 -24 -2 -31 2 -42 26 -7 16 -10 36 -6 45 3 10 -2 21 -14 28 -19 12
-19 14 -4 26 26 19 44 16 37 -7z m-555 -5 c-7 -9 -15 -13 -17 -11 -7 7 7 26
19 26 6 0 6 -6 -2 -15z m-33 -67 c-3 -7 -5 -2 -5 12 0 14 2 19 5 13 2 -7 2
-19 0 -25z m678 22 c3 -5 1 -10 -4 -10 -6 0 -11 5 -11 10 0 6 2 10 4 10 3 0 8
-4 11 -10z m67 -15 c4 -17 1 -25 -8 -25 -14 0 -19 31 -7 43 9 10 10 9 15 -18z
m-1362 6 c0 -5 -9 -11 -20 -14 -22 -6 -28 8 -7 16 19 8 27 8 27 -2z m1335 -81
c4 -22 11 -42 16 -46 19 -11 8 -32 -16 -30 -25 1 -34 19 -15 31 15 9 12 22 -6
29 -24 9 -35 -3 -24 -25 9 -16 7 -19 -10 -19 -11 0 -20 6 -20 14 0 8 -3 21 -6
30 -4 11 0 16 13 16 10 0 24 9 31 20 19 30 30 24 37 -20z m979 20 c14 -14 -3
-59 -34 -93 -17 -18 -36 -41 -44 -52 -21 -29 -31 -11 -31 55 0 51 3 61 28 84
28 26 57 28 81 6z m-2386 -21 c10 0 12 -3 5 -6 -7 -2 -13 -12 -13 -21 0 -11
-6 -6 -15 12 -17 31 -20 61 -4 34 5 -10 18 -18 27 -19z m1228 -26 c-11 -11
-24 9 -18 29 l5 22 9 -24 c5 -12 6 -25 4 -27z m-1792 5 c-3 -5 -12 -4 -20 3
-19 16 -18 18 6 12 11 -3 17 -9 14 -15z m229 2 c3 -11 1 -23 -4 -26 -5 -3 -9
6 -9 20 0 31 6 34 13 6z m1633 -26 c-5 -13 -10 -14 -18 -6 -6 6 -8 18 -4 28 5
13 10 14 18 6 6 -6 8 -18 4 -28z m-706 6 c0 -13 -12 -19 -26 -13 -8 3 -12 8
-9 12 5 10 35 10 35 1z m900 -26 c0 -8 -4 -12 -10 -9 -5 3 -10 10 -10 16 0 5
5 9 10 9 6 0 10 -7 10 -16z m136 -21 c-1 -1 -12 1 -25 4 -23 6 -23 7 -5 20 16
12 19 11 25 -4 4 -10 6 -19 5 -20z m-1023 -12 c-6 -3 -13 -13 -16 -21 -4 -11
-6 -9 -6 6 -1 24 8 36 21 27 7 -3 7 -8 1 -12z m37 9 c0 -5 -5 -10 -11 -10 -5
0 -7 5 -4 10 3 6 8 10 11 10 2 0 4 -4 4 -10z m633 4 c6 -7 -12 -45 -28 -56 -5
-4 -11 -12 -11 -18 -1 -5 -2 -14 -3 -20 -3 -24 -26 -7 -27 19 -1 23 3 29 17
26 11 -2 20 0 20 6 1 5 3 14 4 19 1 6 3 15 4 20 1 11 14 13 24 4z m-1966 -34
c0 -32 -22 -48 -31 -24 -6 17 10 54 23 54 4 0 8 -13 8 -30z m315 -12 c-7 -7
-12 -8 -12 -2 0 14 12 26 19 19 2 -3 -1 -11 -7 -17z m-917 -7 c3 -5 -4 -33
-15 -61 -11 -28 -20 -74 -20 -104 0 -38 -4 -53 -12 -51 -67 16 -86 42 -67 89
7 17 20 36 29 43 9 6 22 30 29 52 8 29 17 41 31 41 10 0 21 -4 25 -9z m2360
-11 c0 -20 34 -25 41 -6 3 9 12 16 19 16 17 0 7 -41 -13 -56 -12 -9 -13 -12
-2 -19 9 -5 15 -4 18 3 7 23 21 12 19 -15 -2 -22 3 -29 21 -31 17 -3 22 -9 19
-20 -2 -9 -6 -24 -8 -32 -2 -8 -11 -21 -19 -28 -13 -12 -12 -13 9 -8 22 4 23
3 18 -35 -4 -32 -2 -39 12 -39 25 0 33 11 19 28 -10 11 -8 16 5 24 11 6 16 16
12 28 -7 22 12 37 28 21 8 -8 8 -14 -1 -23 -9 -9 -8 -14 5 -23 14 -10 13 -15
-11 -38 -15 -15 -32 -27 -38 -27 -5 0 -7 -7 -4 -16 4 -11 -1 -18 -15 -21 -14
-4 -19 -12 -16 -24 3 -10 0 -25 -7 -34 -11 -15 -13 -14 -30 4 -19 21 -19 21 2
21 26 0 30 20 5 20 -15 1 -14 3 4 13 19 10 20 14 8 30 -13 18 -14 18 -33 -1
-20 -20 -20 -20 -19 15 1 33 3 34 30 29 25 -5 27 -4 13 10 -9 8 -16 22 -16 30
0 12 -10 13 -52 8 -49 -7 -51 -6 -45 15 6 25 -19 30 -37 6 -9 -12 -11 -6 -13
29 -1 25 -9 58 -19 75 -16 28 -16 30 6 60 18 26 28 32 54 29 19 -2 31 -9 31
-18z m-455 -27 c0 -10 -7 -14 -19 -10 -14 3 -17 0 -14 -14 3 -9 12 -17 21 -16
26 1 72 -12 72 -22 0 -13 -44 -22 -48 -11 -2 6 -17 10 -33 10 -19 0 -27 4 -23
13 2 7 -4 22 -16 32 -25 22 -25 32 -2 37 30 6 62 -4 62 -19z m-1374 6 c8 -14
-14 -29 -33 -22 -7 3 -13 11 -13 19 0 17 36 19 46 3z m354 -3 c0 -3 -4 -8 -10
-11 -5 -3 -10 -1 -10 4 0 6 5 11 10 11 6 0 10 -2 10 -4z m555 -26 c3 -5 1 -10
-4 -10 -6 0 -11 5 -11 10 0 6 2 10 4 10 3 0 8 -4 11 -10z m396 -26 c5 -15 7
-35 4 -45 -7 -20 9 -26 20 -9 10 16 21 11 22 -11 1 -14 -3 -19 -17 -17 -29 5
-26 -15 4 -30 32 -16 58 -9 50 13 -4 10 0 15 11 15 13 0 16 -6 13 -25 -3 -14
-2 -28 3 -31 5 -2 1 -13 -9 -23 -16 -17 -18 -17 -40 0 -13 10 -30 15 -38 12
-9 -3 -14 1 -14 13 -1 19 -1 19 -11 0 -8 -13 -8 -25 0 -42 10 -23 9 -24 -14
-21 -14 2 -25 7 -24 11 0 5 -5 12 -12 17 -10 6 -6 13 14 29 29 23 36 50 12 50
-19 0 -19 5 2 41 14 24 15 33 5 49 -15 24 -15 30 -2 30 6 0 15 -12 21 -26z
m344 -4 c3 -5 15 -10 26 -10 10 0 19 -7 19 -15 0 -18 -8 -18 -66 -4 -36 9 -42
14 -33 25 13 16 45 18 54 4z m-720 -12 c26 -12 32 -23 16 -32 -5 -3 -11 1 -15
9 -7 20 -24 19 -29 -2 -3 -11 -5 -7 -6 10 -1 31 -1 31 34 15z m345 2 c0 -5 -2
-10 -4 -10 -3 0 -8 5 -11 10 -3 6 -1 10 4 10 6 0 11 -4 11 -10z m184 -39 c-12
-22 -12 -28 1 -37 9 -7 11 -14 4 -21 -12 -12 5 -63 21 -63 6 0 10 -10 8 -22
-2 -17 -14 -27 -46 -36 -23 -8 -39 -18 -36 -23 3 -5 -2 -9 -10 -9 -21 0 -20
17 1 29 14 8 15 12 4 25 -7 9 -11 16 -8 16 3 0 13 3 23 7 11 4 15 3 11 -4 -4
-6 0 -14 9 -17 28 -11 35 4 16 32 -11 15 -20 45 -20 66 -1 21 -4 41 -6 44 -3
3 2 18 11 33 21 36 36 18 17 -20z m48 27 c-7 -7 -12 -8 -12 -2 0 6 3 14 7 17
3 4 9 5 12 2 2 -3 -1 -11 -7 -17z m-2261 -6 c4 -4 10 -17 14 -29 5 -18 -1 -30
-27 -53 -18 -16 -41 -30 -51 -30 -10 0 -27 -4 -37 -10 -14 -7 -19 -5 -23 10
-3 11 -1 23 4 26 5 3 9 18 9 33 0 29 16 55 40 64 17 6 62 -1 71 -11z m1909
-10 c0 -26 -11 -34 -27 -21 -20 17 -16 39 7 39 13 0 20 -7 20 -18z m84 -21
c-6 -6 -24 19 -24 34 1 6 7 1 15 -9 8 -11 12 -22 9 -25z m907 12 c-8 -15 -10
-15 -11 -2 0 17 10 32 18 25 2 -3 -1 -13 -7 -23z m-1093 -15 c4 -19 -39 -32
-50 -15 -5 9 -10 9 -20 -1 -10 -10 -10 -16 0 -33 21 -33 7 -33 -27 0 -28 27
-29 31 -12 31 11 0 23 5 27 11 4 6 19 9 36 5 25 -5 29 -3 24 10 -4 10 -1 14 6
12 7 -3 14 -12 16 -20z m-172 -5 c-4 -9 -1 -20 6 -25 10 -6 9 -8 -3 -8 -24 0
-29 10 -16 31 15 23 21 25 13 2z m310 -8 c9 -8 11 -15 5 -15 -15 0 -14 -37 2
-43 18 -8 -12 -27 -41 -27 -20 0 -22 4 -16 23 3 12 10 27 15 33 5 6 7 19 3 28
-8 20 12 21 32 1z m444 5 c8 -5 12 -10 10 -12 -26 -16 -52 -28 -65 -28 -8 0
-15 -7 -15 -16 0 -14 -2 -14 -15 0 -20 20 -19 36 3 36 9 0 26 7 36 15 23 17
26 18 46 5z m60 -9 c0 -6 -4 -13 -10 -16 -5 -3 -10 1 -10 9 0 9 5 16 10 16 6
0 10 -4 10 -9z m-190 -5 c0 -3 -4 -8 -10 -11 -5 -3 -10 -1 -10 4 0 6 5 11 10
11 6 0 10 -2 10 -4z m602 -44 c6 -7 19 -10 29 -7 14 5 22 0 28 -19 6 -13 18
-29 28 -35 11 -6 13 -11 5 -11 -7 0 -10 -5 -7 -10 4 -6 11 -7 17 -4 6 4 19 -4
30 -17 13 -16 21 -20 25 -11 2 6 8 12 12 12 13 0 56 -42 54 -51 -2 -5 6 -9 18
-9 15 0 19 -5 15 -17 -4 -13 11 -33 49 -68 57 -52 65 -65 40 -65 -8 0 -15 -7
-15 -15 0 -17 -45 -21 -55 -4 -4 5 1 19 11 30 9 10 14 22 11 25 -13 13 -67
-19 -81 -47 -13 -26 -13 -30 3 -39 10 -5 27 -6 39 -3 16 4 22 1 22 -11 0 -13
-7 -15 -29 -11 -23 4 -33 0 -49 -21 l-19 -27 -21 23 -22 24 -38 -31 c-27 -22
-52 -32 -83 -35 -42 -3 -44 -1 -47 25 -2 15 2 27 8 27 6 0 8 10 4 24 -3 13 -1
27 5 30 6 4 11 14 11 23 0 15 -2 15 -17 0 -10 -8 -30 -19 -45 -22 -23 -6 -29
-3 -37 16 -8 20 -5 28 15 44 31 26 31 37 0 29 -13 -3 -27 -1 -31 6 -7 12 19
58 43 76 15 11 13 43 -3 86 -8 19 24 33 68 29 15 -1 27 2 27 8 0 6 -6 11 -13
11 -17 0 -41 66 -30 82 5 9 9 7 11 -7 2 -11 9 -26 14 -33z m-862 17 c0 -11 -4
-17 -10 -14 -5 3 -10 13 -10 21 0 8 5 14 10 14 6 0 10 -9 10 -21z m-1035 -9
c3 -5 1 -10 -4 -10 -6 0 -11 5 -11 10 0 6 2 10 4 10 3 0 8 -4 11 -10z m1297
-22 c-9 -9 -12 -7 -12 12 0 19 3 21 12 12 9 -9 9 -15 0 -24z m358 -2 c0 -8 -7
-17 -16 -20 -14 -5 -14 -9 -3 -22 11 -14 10 -19 -9 -34 -12 -10 -22 -25 -22
-34 0 -9 -2 -16 -4 -16 -2 0 -12 -3 -21 -6 -14 -6 -14 -3 -3 22 7 16 22 37 32
48 18 18 18 19 1 33 -18 12 -18 13 3 13 13 0 22 6 22 15 0 8 5 15 10 15 6 0
10 -6 10 -14z m381 -19 c-9 -9 -14 -8 -21 3 -7 11 -4 17 8 21 21 8 29 -8 13
-24z m-1283 14 c10 -6 9 -10 -7 -14 -14 -3 -21 0 -21 9 0 16 9 18 28 5z m824
-16 c0 -5 -5 -11 -11 -13 -6 -2 -11 4 -11 13 0 9 5 15 11 13 6 -2 11 -8 11
-13z m-774 -3 c7 -5 10 -16 7 -24 -8 -19 -43 -30 -51 -16 -4 5 -17 8 -29 6
-16 -4 -22 -1 -18 8 3 9 11 10 30 3 36 -14 45 -11 38 11 -7 21 1 25 23 12z
m192 -27 c-10 -12 -9 -22 3 -48 9 -18 20 -45 26 -60 6 -16 18 -27 30 -27 10 0
21 -9 24 -20 6 -25 27 -26 27 -2 0 10 7 27 15 38 19 25 19 34 0 34 -8 0 -15
-7 -15 -15 0 -8 -4 -15 -10 -15 -5 0 -10 9 -10 20 0 12 -7 21 -17 22 -10 0
-22 2 -28 3 -5 2 -14 3 -20 4 -7 1 61 41 70 41 0 0 20 -18 44 -40 23 -22 38
-40 32 -40 -6 0 -11 -6 -11 -14 0 -7 -6 -19 -14 -26 -8 -6 -13 -17 -10 -24 3
-8 -3 -16 -13 -19 -10 -4 -28 -14 -40 -23 -21 -15 -23 -15 -23 0 0 14 -3 15
-22 5 -21 -11 -21 -12 -3 -25 12 -9 14 -14 5 -14 -7 0 -21 -7 -31 -16 -21 -19
-54 -11 -46 10 3 7 0 19 -6 25 -8 8 -8 11 2 11 7 0 15 -9 18 -20 7 -27 27 -20
31 9 3 15 -1 22 -9 19 -7 -2 -21 4 -32 15 -21 21 -16 67 8 67 22 0 30 22 12
35 -10 7 -20 32 -23 56 -5 39 -3 45 18 54 26 12 36 1 18 -20z m546 24 c3 -6 2
-15 -4 -21 -6 -6 -11 -2 -15 11 -5 22 7 29 19 10z m-386 -23 c-6 -9 -6 -16 2
-24 6 -6 8 -15 5 -19 -4 -4 -17 3 -29 15 -17 17 -19 24 -9 36 7 8 19 12 27 9
10 -4 11 -9 4 -17z m-220 -23 c0 -19 -12 -43 -21 -43 -5 0 -7 11 -3 24 4 16 1
25 -11 30 -9 3 -14 10 -10 16 7 12 45 -10 45 -27z m416 12 c-10 -8 -24 -11
-29 -8 -6 4 -2 10 9 14 31 12 40 9 20 -6z m-499 -25 c9 -14 10 -21 1 -26 -12
-8 -40 24 -32 37 8 14 18 11 31 -11z m598 -20 c-4 -19 -3 -30 4 -30 15 0 14
-35 -2 -48 -10 -8 -13 -5 -15 15 -1 15 -6 29 -10 32 -5 3 -11 14 -15 23 -4 12
-2 15 8 11 8 -3 18 2 21 11 10 27 16 18 9 -14z m-105 8 c0 -4 -7 -8 -15 -8 -7
0 -19 -8 -24 -17 -10 -17 -10 -17 -11 0 0 21 -18 23 -26 2 -4 -8 -11 -12 -16
-9 -17 11 31 41 63 41 16 0 29 -4 29 -9z m-1423 -9 c8 -8 17 -8 31 0 17 9 22
6 36 -23 8 -18 22 -39 31 -46 22 -18 18 -48 -10 -82 -14 -16 -25 -36 -25 -44
0 -22 -14 -16 -38 16 -25 33 -52 38 -76 14 -26 -25 -20 -44 13 -44 35 0 48
-15 31 -35 -6 -8 -9 -24 -5 -37 l6 -23 -18 21 c-11 14 -30 22 -50 22 -37 1
-40 -4 -16 -30 23 -26 2 -49 -27 -30 -11 6 -25 12 -32 12 -28 1 -53 35 -54 73
0 28 3 36 13 32 8 -3 21 2 29 10 9 8 26 15 38 15 29 0 53 45 35 66 -9 11 -8
18 5 32 17 20 21 42 7 42 -5 0 -7 8 -4 19 3 12 11 17 23 14 10 -3 21 0 24 6 9
14 19 14 33 0z m908 -35 c14 -17 36 -27 63 -31 43 -6 54 -16 27 -27 -12 -4
-14 -10 -5 -25 14 -27 13 -30 -10 -24 -16 4 -20 1 -18 -17 2 -13 -3 -25 -11
-28 -9 -3 -12 0 -9 9 18 48 19 59 4 64 -9 3 -23 7 -32 10 -12 4 -14 8 -5 19 8
10 5 19 -14 40 -14 15 -25 29 -25 32 0 11 15 2 35 -22z m838 -4 c-6 -21 -18
-26 -27 -11 -3 5 -16 7 -29 4 -15 -4 -19 -2 -12 5 6 6 21 12 35 15 14 2 28 5
32 6 3 0 4 -8 1 -19z m-717 -17 c-10 -10 -19 5 -10 18 6 11 8 11 12 0 2 -7 1
-15 -2 -18z m594 7 c0 -11 -4 -20 -10 -20 -5 0 -10 9 -10 20 0 11 5 20 10 20
6 0 10 -9 10 -20z m-307 3 c-7 -2 -19 -2 -25 0 -7 3 -2 5 12 5 14 0 19 -2 13
-5z m57 -3 c0 -5 -4 -10 -10 -10 -5 0 -10 5 -10 10 0 6 5 10 10 10 6 0 10 -4
10 -10z m-505 -11 c-4 -5 1 -19 11 -30 9 -10 13 -19 8 -19 -17 0 -31 15 -38
38 -6 16 -3 22 9 22 9 0 13 -5 10 -11z m615 -14 c0 -8 -6 -15 -14 -15 -17 0
-28 14 -19 24 12 12 33 6 33 -9z m1077 -6 c7 -6 13 -18 13 -26 0 -17 39 -52
58 -53 6 0 12 -5 12 -11 0 -5 -4 -8 -10 -4 -12 8 -50 -16 -50 -32 0 -7 8 -13
18 -13 17 0 82 -68 82 -87 1 -16 39 -53 64 -63 24 -9 36 -30 18 -30 -5 0 -22
-11 -38 -25 -24 -21 -35 -25 -64 -20 -38 7 -107 9 -155 3 -32 -3 -33 -1 -19
69 l6 31 -41 -5 c-53 -7 -55 12 -6 58 19 19 35 42 35 53 0 11 9 30 21 42 16
17 18 26 10 40 -5 11 -12 27 -15 37 -5 14 -10 16 -25 7 -38 -20 -43 -2 -8 30
23 22 66 22 94 -1z m-917 -9 c0 -5 -2 -10 -4 -10 -3 0 -8 5 -11 10 -3 6 -1 10
4 10 6 0 11 -4 11 -10z m-1753 -25 c8 -22 -6 -33 -17 -15 -13 20 -12 30 0 30
6 0 13 -7 17 -15z m380 -4 c-6 -23 31 -38 40 -15 3 8 14 14 25 14 17 0 18 -3
8 -15 -10 -12 -10 -18 0 -30 11 -13 10 -14 -4 -9 -11 4 -16 1 -16 -10 0 -9 -6
-16 -13 -16 -8 0 -13 10 -13 21 1 12 -5 24 -13 27 -11 3 -12 -2 -7 -24 6 -27
5 -28 -9 -10 -21 28 -19 86 3 86 2 0 2 -9 -1 -19z m1423 -1 c0 -11 -4 -20 -9
-20 -5 0 -7 9 -4 20 3 11 7 20 9 20 2 0 4 -9 4 -20z m-220 0 c0 -5 -7 -10 -16
-10 -8 0 -12 5 -9 10 3 6 10 10 16 10 5 0 9 -4 9 -10z m-1263 -32 c6 -5 9 -16
6 -24 -7 -19 -25 -18 -21 2 4 24 -30 26 -43 2 -6 -11 -9 -20 -7 -21 46 -23 63
-36 72 -52 6 -11 15 -23 19 -26 4 -3 9 -23 10 -45 2 -33 7 -40 27 -42 20 -3
22 -2 12 11 -15 18 -5 47 15 47 8 0 24 -11 35 -25 16 -20 23 -23 34 -14 11 9
14 8 14 -5 0 -9 7 -16 15 -16 8 0 15 4 15 10 0 15 -43 100 -51 100 -12 0 -19
-29 -9 -35 6 -4 10 -11 10 -16 0 -17 -40 10 -58 39 -20 33 -52 32 -46 -1 4
-19 3 -19 -7 3 -6 14 -15 33 -21 43 -13 26 -2 34 20 14 10 -10 24 -17 31 -17
6 0 14 -7 17 -15 9 -22 45 -18 51 5 4 15 11 19 24 15 21 -7 25 5 7 23 -6 6 -8
15 -3 19 4 5 10 2 12 -4 3 -7 16 -13 29 -13 17 0 24 -6 24 -20 0 -11 -4 -20
-10 -20 -5 0 -9 -6 -7 -12 1 -7 -4 -12 -10 -10 -14 2 -15 -3 -7 -35 4 -13 12
-23 19 -23 16 0 29 35 20 50 -3 5 1 10 9 10 9 0 16 -7 16 -15 0 -8 7 -15 15
-15 8 0 15 -5 15 -11 0 -5 16 -17 35 -25 19 -8 35 -17 35 -20 0 -3 -5 -2 -10
1 -6 4 -35 8 -65 11 -53 4 -55 4 -55 -21 0 -16 6 -25 16 -25 27 0 9 -25 -19
-25 -34 -1 -43 -11 -27 -30 16 -19 34 -19 50 0 18 22 32 18 28 -7 -2 -12 -13
-28 -25 -34 -13 -6 -20 -14 -16 -18 4 -4 0 -4 -10 0 -25 9 -35 -25 -12 -43 18
-12 18 -14 2 -30 -16 -16 -18 -16 -29 -1 -7 9 -24 18 -38 20 -32 4 -36 28 -10
55 28 31 25 36 -15 29 -27 -5 -35 -4 -35 8 0 23 -22 31 -35 12 -11 -14 -14
-15 -25 -1 -14 17 -40 20 -40 4 0 -5 -5 -7 -11 -3 -8 4 -7 9 2 15 20 12 8 18
-23 12 -24 -5 -28 -10 -28 -41 0 -35 0 -35 -21 -16 -16 15 -18 20 -7 29 7 6
18 19 24 30 13 24 68 32 101 14 13 -7 26 -9 30 -6 8 8 -31 47 -47 47 -12 0
-12 2 -1 34 8 20 5 29 -15 51 -13 14 -24 30 -24 36 0 19 -25 8 -36 -16 -13
-27 -9 -35 18 -35 11 0 16 -5 13 -11 -4 -6 1 -16 11 -23 10 -8 14 -18 9 -25
-5 -9 -12 -7 -26 8 -11 12 -28 21 -38 21 -16 0 -18 6 -15 38 4 35 4 47 4 101
0 14 6 29 13 33 14 9 56 2 74 -14z m1573 -6 c0 -4 -10 -9 -22 -9 -18 -2 -20 0
-8 7 18 12 30 13 30 2z m-340 -12 c0 -5 -4 -10 -10 -10 -5 0 -10 5 -10 10 0 6
5 10 10 10 6 0 10 -4 10 -10z m63 -11 c4 -15 11 -20 21 -16 24 10 20 -36 -4
-51 -23 -14 -25 -12 -34 51 -5 39 8 52 17 16z m57 11 c0 -5 -4 -10 -10 -10 -5
0 -10 5 -10 10 0 6 5 10 10 10 6 0 10 -4 10 -10z m40 2 c0 -5 -7 -17 -16 -28
-14 -17 -15 -17 -10 -1 3 10 6 23 6 28 0 5 5 9 10 9 6 0 10 -4 10 -8z m95 -22
c-18 -20 -45 -27 -45 -12 0 8 53 40 59 35 2 -1 -4 -12 -14 -23z m-1198 -14
c-16 -18 -31 -8 -16 10 6 7 15 11 20 8 5 -3 3 -11 -4 -18z m342 14 c10 -5 31
-26 46 -47 16 -21 25 -35 20 -31 -4 4 -14 3 -22 -3 -10 -9 -13 -6 -13 15 0 16
-5 26 -15 26 -8 0 -15 5 -15 10 0 6 -7 10 -15 10 -8 0 -15 7 -15 15 0 18 5 18
29 5z m181 -6 c0 -3 -14 -17 -30 -31 -22 -18 -29 -31 -25 -44 7 -20 -10 -25
-34 -10 -11 7 -10 11 6 20 12 6 24 22 27 35 4 17 11 23 21 20 8 -4 15 -1 15 5
0 6 5 11 10 11 6 0 10 -3 10 -6z m753 -34 c-3 -11 -9 -20 -14 -20 -10 0 -12
24 -2 33 13 13 21 7 16 -13z m71 11 c6 -10 -22 -37 -29 -29 -8 7 5 38 15 38 5
0 11 -4 14 -9z m-384 -11 c0 -5 -5 -10 -11 -10 -5 0 -7 5 -4 10 3 6 8 10 11
10 2 0 4 -4 4 -10z m139 -23 c-12 -27 -39 -44 -39 -25 0 13 41 60 47 54 2 -2
-2 -15 -8 -29z m-169 14 c0 -5 -7 -11 -15 -15 -9 -3 -15 0 -15 9 0 8 7 15 15
15 8 0 15 -4 15 -9z m900 -17 c0 -8 -4 -12 -10 -9 -5 3 -10 13 -10 21 0 8 5
12 10 9 6 -3 10 -13 10 -21z m-3373 -4 c12 0 14 -7 9 -32 -3 -17 -13 -39 -21
-48 -8 -9 -15 -22 -15 -28 0 -13 -20 -17 -21 -4 -8 109 -5 126 18 118 8 -3 22
-6 30 -6z m3448 0 c3 -5 -3 -10 -15 -10 -12 0 -18 5 -15 10 3 6 10 10 15 10 5
0 12 -4 15 -10z m-2640 -10 c3 -5 1 -10 -4 -10 -6 0 -11 5 -11 10 0 6 2 10 4
10 3 0 8 -4 11 -10z m1610 0 c3 -5 2 -10 -4 -10 -5 0 -13 5 -16 10 -3 6 -2 10
4 10 5 0 13 -4 16 -10z m392 -15 c-4 -8 -11 -15 -17 -15 -7 0 -7 6 0 21 13 23
26 19 17 -6z m43 21 c0 -2 -8 -10 -17 -17 -16 -13 -17 -12 -4 4 13 16 21 21
21 13z m-953 -23 c3 -7 -4 -9 -16 -6 -12 3 -18 9 -15 15 7 11 26 6 31 -9z
m693 -14 c0 -5 -7 -9 -15 -9 -8 0 -19 -9 -25 -20 -13 -24 -30 -26 -30 -5 0 8
6 15 14 15 7 0 16 9 19 20 3 13 10 18 21 14 9 -3 16 -10 16 -15z m130 6 c-7
-9 -15 -13 -19 -10 -3 3 1 10 9 15 21 14 24 12 10 -5z m167 -2 c-9 -9 -20 -13
-24 -9 -4 4 -1 11 7 16 25 16 35 11 17 -7z m-227 -3 c0 -5 -4 -10 -10 -10 -5
0 -10 5 -10 10 0 6 5 10 10 10 6 0 10 -4 10 -10z m-690 -10 c0 -5 -2 -10 -4
-10 -3 0 -8 5 -11 10 -3 6 -1 10 4 10 6 0 11 -4 11 -10z m517 -25 c-1 -42 -17
-48 -17 -7 0 24 7 42 16 42 1 0 2 -16 1 -35z m133 -6 c0 -11 7 -22 15 -25 23
-9 0 -42 -32 -46 -24 -3 -29 -8 -33 -41 -3 -21 -8 -38 -12 -38 -30 1 -68 -14
-68 -25 0 -8 -4 -14 -10 -14 -17 0 -11 15 14 39 14 13 29 20 34 17 17 -10 34
21 29 53 -4 26 -2 31 14 31 18 0 23 10 20 39 -3 21 8 43 19 36 5 -3 10 -15 10
-26z m140 21 c0 -5 -5 -10 -11 -10 -5 0 -7 5 -4 10 3 6 8 10 11 10 2 0 4 -4 4
-10z m601 -7 c13 -16 12 -17 -3 -4 -17 13 -22 21 -14 21 2 0 10 -8 17 -17z
m-2291 -8 c0 -8 -4 -15 -10 -15 -5 0 -10 7 -10 15 0 8 5 15 10 15 6 0 10 -7
10 -15z m1875 -4 c-3 -6 -11 -11 -17 -11 -6 0 -6 6 2 15 14 17 26 13 15 -4z
m-85 -26 l0 -36 -30 16 c-16 8 -42 15 -57 15 -21 1 -24 3 -13 9 18 11 70 3 70
-10 0 -5 5 -9 10 -9 6 0 10 11 10 25 0 14 2 25 5 25 3 0 5 -16 5 -35z m-2743
-17 c28 -42 30 -43 83 -42 35 1 54 6 52 13 -1 6 2 11 8 11 6 0 10 7 10 15 0
19 46 49 65 41 20 -7 20 -65 0 -102 -18 -35 -18 -61 -1 -93 12 -22 12 -29 -2
-50 -9 -15 -19 -28 -23 -31 -3 -3 -9 -23 -13 -45 -4 -21 -17 -52 -28 -67 -11
-16 -23 -53 -27 -83 -8 -58 -17 -77 -29 -59 -8 13 -42 14 -42 2 0 -5 -4 -6
-10 -3 -5 3 -10 22 -10 41 0 28 -5 36 -25 44 -14 5 -25 14 -25 20 0 5 -7 10
-17 10 -19 0 -79 66 -110 122 -28 52 -40 163 -20 201 15 28 102 97 124 97 6 0
25 -19 40 -42z m923 10 c0 -11 -5 -28 -10 -39 -7 -13 -7 -19 0 -19 5 0 10 -4
10 -10 0 -5 -7 -7 -15 -4 -21 8 -19 -23 2 -44 16 -16 15 -17 -5 -20 -12 -2
-22 -10 -22 -18 0 -8 -4 -14 -10 -14 -13 0 -13 13 1 27 8 8 8 17 -1 33 -9 18
-8 25 6 41 25 27 10 23 -22 -6 -14 -13 -31 -22 -37 -18 -6 4 2 16 19 29 28 23
28 24 9 39 -19 15 -19 15 10 13 25 -3 30 0 28 18 -2 17 2 21 17 17 11 -3 20
-14 20 -25z m1688 20 c-5 -16 -48 -24 -48 -10 0 11 17 20 38 21 8 1 12 -5 10
-11z m-2233 -8 c-3 -5 -10 -10 -16 -10 -5 0 -9 5 -9 10 0 6 7 10 16 10 8 0 12
-4 9 -10z m2805 -10 c0 -5 -4 -10 -10 -10 -5 0 -10 5 -10 10 0 6 5 10 10 10 6
0 10 -4 10 -10z m-2150 -10 c0 -5 -2 -10 -4 -10 -3 0 -8 5 -11 10 -3 6 -1 10
4 10 6 0 11 -4 11 -10z m2340 -15 c0 -22 -2 -24 -19 -13 -18 11 -18 13 -3 25
22 16 22 17 22 -12z m568 -12 c39 -19 57 -35 67 -60 14 -34 19 -37 66 -47 34
-7 43 -39 18 -62 -11 -10 -21 -37 -25 -64 -8 -63 -18 -78 -41 -64 -10 6 -22
20 -28 32 -5 12 -13 22 -16 22 -13 0 -38 -110 -44 -197 -6 -89 -5 -94 19 -126
33 -42 32 -67 0 -159 -14 -40 -32 -95 -40 -122 -8 -28 -17 -53 -22 -58 -4 -4
-31 -5 -60 -1 -45 5 -55 10 -68 34 -8 16 -24 34 -37 40 -12 6 -32 24 -45 40
-19 24 -31 29 -66 29 -46 0 -146 26 -146 38 0 4 7 16 15 26 24 31 18 63 -16
93 -18 16 -38 34 -46 42 -12 11 -19 12 -33 3 -14 -9 -25 -8 -49 4 -17 9 -31
19 -31 24 0 18 33 32 75 32 42 -1 45 0 45 26 0 19 8 30 27 39 32 15 53 2 53
-33 0 -26 55 -94 76 -94 7 0 32 9 54 21 35 19 40 25 41 58 1 57 12 75 45 76
23 0 30 5 32 25 2 18 -4 28 -20 35 -33 14 -34 50 -3 86 21 26 24 37 19 66 -4
19 -2 38 3 42 5 3 19 23 31 44 l21 37 -19 35 c-29 52 -26 63 18 67 51 4 69 0
130 -29z m-3478 -8 c0 -37 -24 -95 -39 -95 -5 0 -8 19 -6 43 1 23 3 52 4 65 1
15 7 22 21 22 16 0 20 -7 20 -35z m1040 6 c0 -24 -3 -28 -19 -24 -17 4 -18 9
-9 29 15 33 28 30 28 -5z m1151 14 l44 7 -24 -20 c-14 -11 -30 -18 -37 -15 -7
2 -15 0 -19 -6 -4 -8 -11 -6 -21 4 -19 18 -54 4 -54 -22 0 -12 -3 -14 -10 -7
-6 6 -8 17 -5 25 8 21 58 47 71 37 7 -5 31 -6 55 -3z m-241 -3 c0 -22 -28 -45
-46 -37 -15 6 -16 8 -4 13 8 3 19 11 23 18 9 15 27 19 27 6z m-620 -37 c0 -8
-6 -12 -14 -9 -8 3 -12 12 -9 20 6 17 23 9 23 -11z m1095 -26 c5 -16 12 -19
32 -14 14 3 22 2 19 -3 -3 -5 5 -21 18 -35 21 -22 22 -27 9 -40 -9 -8 -12 -20
-9 -26 11 -17 36 -13 36 5 0 11 6 14 23 8 12 -3 22 -7 22 -8 0 0 6 -11 13 -24
17 -30 1 -52 -38 -52 -30 0 -67 -49 -42 -57 6 -3 10 -9 6 -14 -3 -5 4 -9 16
-9 12 0 19 4 16 8 -7 12 6 28 41 46 20 10 34 12 38 6 14 -23 26 -9 19 22 -6
31 -6 32 12 18 30 -23 33 -32 21 -51 -18 -28 6 -48 35 -30 18 11 23 11 33 -3
7 -9 17 -16 23 -16 11 0 17 -14 26 -72 6 -30 3 -39 -13 -48 -16 -8 -19 -17
-14 -43 8 -42 10 -43 31 -24 20 18 42 23 42 9 0 -15 -28 -47 -42 -47 -7 0 -14
-10 -16 -22 -2 -15 -10 -23 -22 -23 -12 0 -27 -13 -37 -32 -17 -32 -18 -32
-21 -9 -3 17 4 30 20 42 19 15 21 20 10 31 -11 11 -15 10 -25 -3 -7 -8 -20
-18 -29 -22 -10 -3 -18 -16 -18 -27 0 -17 -3 -19 -19 -10 -25 13 -32 2 -18
-30 29 -70 35 -91 23 -87 -6 2 -13 12 -14 23 -6 29 -18 37 -46 30 -31 -8 -34
-26 -6 -33 25 -7 25 -31 0 -63 l-20 -25 0 33 c0 18 -8 40 -20 52 -21 21 -28
70 -10 70 6 0 10 7 10 15 0 8 -4 15 -10 15 -5 0 -10 -7 -10 -15 0 -23 -20 -18
-29 8 -6 17 -3 26 15 42 25 22 32 45 13 45 -7 0 -18 -8 -25 -17 -7 -10 -15
-15 -19 -12 -3 4 1 14 10 22 8 9 15 20 15 25 0 5 7 15 15 22 8 7 14 18 14 24
-1 6 1 19 5 29 11 25 0 48 -20 40 -11 -4 -15 -14 -12 -35 3 -19 0 -32 -9 -35
-7 -3 -13 -14 -13 -24 0 -23 -26 -25 -47 -3 -9 8 -22 13 -29 10 -8 -3 -14 -1
-14 4 0 6 -7 10 -15 10 -12 0 -13 4 -5 19 14 26 13 31 -6 31 -14 0 -15 -7 -10
-40 4 -25 2 -40 -4 -40 -5 0 -10 7 -10 16 0 34 -50 60 -50 27 -1 -25 -24 -53
-43 -53 -14 0 -13 6 5 43 11 23 24 49 27 57 4 8 2 26 -5 39 -7 13 -10 30 -7
37 6 17 43 19 43 3 0 -6 -7 -9 -15 -5 -8 3 -15 1 -15 -4 0 -6 5 -10 10 -10 6
0 10 -7 10 -15 0 -26 21 -16 33 15 11 28 37 50 37 30 0 -6 5 -10 11 -10 14 0
39 -25 39 -39 0 -15 9 -13 44 8 51 30 46 45 -13 38 -28 -3 -51 -2 -51 3 0 12
63 60 78 60 7 0 12 5 12 10 0 11 -51 2 -60 -10 -9 -13 -50 -31 -50 -22 0 5 10
20 23 33 38 38 41 59 11 59 -19 0 -25 -4 -20 -15 4 -11 -3 -17 -24 -22 -31 -6
-42 -23 -15 -23 20 0 19 -16 -1 -24 -14 -5 -44 14 -44 28 0 3 10 14 22 25 12
11 22 31 24 43 1 13 3 25 3 27 1 2 8 -2 16 -9 8 -6 19 -9 25 -5 12 7 14 35 2
35 -16 0 -30 44 -21 68 5 13 7 28 3 33 -3 5 4 9 15 9 11 0 22 -9 26 -21z
m-1745 2 c0 -6 -4 -13 -10 -16 -5 -3 -10 1 -10 9 0 9 5 16 10 16 6 0 10 -4 10
-9z m-160 -11 c0 -5 -5 -10 -11 -10 -5 0 -7 5 -4 10 3 6 8 10 11 10 2 0 4 -4
4 -10z m823 -53 c-8 -22 -10 -32 -12 -54 0 -7 -6 -13 -11 -13 -6 0 -8 11 -4
27 5 19 2 30 -10 38 -15 11 -15 13 -1 19 8 3 15 16 15 28 l0 22 16 -22 c10
-15 13 -30 7 -45z m110 28 c-9 -15 -11 -15 -23 0 -12 14 -12 18 1 25 19 12 33
-4 22 -25z m731 21 c-3 -7 -14 -11 -28 -9 -12 3 -28 -2 -35 -10 -10 -12 -18
-13 -42 -5 -23 8 -28 13 -19 22 9 8 14 8 17 -2 3 -8 9 -10 17 -3 6 5 27 11 46
14 19 2 38 5 42 5 4 1 5 -4 2 -12z m-1548 -33 c-11 -11 -17 4 -9 23 7 18 8 18
11 1 2 -10 1 -21 -2 -24z m141 21 c8 -23 -7 -31 -19 -11 -9 18 -11 18 -29 -2
-22 -24 -24 -31 -6 -31 7 0 13 -9 14 -20 1 -11 -2 -20 -8 -20 -5 0 -9 7 -9 15
0 8 -4 15 -10 15 -5 0 -10 -5 -10 -11 0 -8 -4 -8 -14 0 -8 6 -19 10 -26 9 -7
-2 -15 3 -17 10 -3 6 2 12 11 12 8 0 23 11 33 24 21 28 81 34 90 10z m1486
-57 c-9 -19 -6 -28 13 -50 17 -20 24 -40 24 -68 0 -26 5 -42 15 -45 23 -9 7
-24 -24 -24 -38 0 -55 -22 -47 -60 6 -30 5 -30 -19 -14 -14 9 -25 20 -25 26 0
5 -9 4 -20 -2 -21 -11 -29 3 -10 15 7 4 8 11 2 18 -5 7 -12 28 -15 47 -3 19
-8 48 -11 64 -6 23 -1 35 19 56 17 18 23 30 16 34 -18 11 18 54 47 58 34 4 50
-22 35 -55z m-2342 32 c-3 -8 -5 -30 -5 -49 -1 -31 2 -35 27 -38 19 -2 27 -9
27 -24 0 -14 -5 -18 -15 -14 -11 4 -15 -2 -15 -24 0 -20 -5 -30 -15 -30 -22 0
-30 29 -16 52 10 17 9 20 -8 25 -27 7 -52 48 -44 70 11 29 37 54 53 50 8 -2
13 -10 11 -18z m589 5 c0 -8 -4 -12 -10 -9 -5 3 -10 10 -10 16 0 5 5 9 10 9 6
0 10 -7 10 -16z m80 6 c0 -5 -2 -10 -4 -10 -3 0 -8 5 -11 10 -3 6 -1 10 4 10
6 0 11 -4 11 -10z m844 -29 c-2 -2 1 -10 8 -18 8 -10 8 -20 -2 -38 -7 -14 -10
-28 -5 -32 4 -5 10 -2 12 5 3 6 11 12 19 12 15 0 19 -12 7 -24 -5 -4 -9 -16
-9 -27 -1 -10 -2 -26 -3 -34 -1 -21 -38 -19 -43 3 -2 9 -3 42 -3 72 1 30 0 49
-2 43 -6 -16 -39 -17 -48 -3 -9 15 15 42 32 36 16 -6 16 -1 2 26 -11 20 -11
20 14 2 14 -11 23 -21 21 -23z m57 -26 c7 -6 13 -5 19 5 8 12 10 9 10 -12 0
-21 -5 -28 -20 -28 -13 0 -20 7 -20 19 0 11 -5 21 -12 23 -7 3 -9 11 -3 24 8
19 8 19 13 -1 2 -11 8 -24 13 -30z m509 24 c0 -12 -8 -23 -19 -26 -10 -2 -24
-16 -30 -30 -7 -14 -14 -23 -17 -21 -6 7 20 55 42 78 24 24 24 24 24 -1z
m-1421 -3 c7 -8 20 -12 30 -9 27 7 38 -17 16 -34 -11 -7 -13 -13 -7 -13 7 0
12 -4 12 -10 0 -5 -11 -10 -25 -10 -26 0 -35 15 -13 22 17 6 0 28 -22 28 -18
0 -34 23 -23 34 10 10 20 7 32 -8z m-189 -11 c11 -13 9 -19 -8 -36 -12 -11
-22 -25 -22 -31 0 -7 -6 -3 -14 8 -13 16 -13 20 0 27 8 4 14 17 14 27 0 24 13
26 30 5z m552 -9 c3 -15 -2 -27 -14 -35 -10 -6 -18 -7 -18 -2 0 6 4 12 9 15 5
3 7 15 4 26 -3 11 -1 20 5 20 5 0 12 -11 14 -24z m979 -9 c-10 -9 -11 -8 -5 6
3 10 9 15 12 12 3 -3 0 -11 -7 -18z m-616 3 c3 -5 -3 -10 -15 -10 -12 0 -18 5
-15 10 3 6 10 10 15 10 5 0 12 -4 15 -10z m-498 -12 c19 3 53 -29 53 -50 0
-17 -18 -7 -23 12 -5 21 -31 27 -42 10 -12 -20 -35 -10 -35 16 0 18 4 23 13
17 6 -4 22 -6 34 -5z m-119 -20 c10 -10 15 -10 22 2 6 9 10 10 10 3 0 -6 3
-19 6 -27 5 -12 2 -15 -12 -10 -39 12 -63 27 -58 36 7 11 18 10 32 -4z m977 2
c-27 -12 -43 -12 -25 0 8 5 22 9 30 9 10 0 8 -3 -5 -9z m-55 -21 c0 -13 -63
-73 -81 -77 -22 -5 -30 -17 -23 -35 7 -18 34 -24 34 -7 0 6 10 10 23 10 13 0
28 5 35 12 7 7 12 8 12 2 0 -16 -21 -33 -35 -27 -7 2 -16 -5 -20 -16 -4 -12
-12 -18 -21 -14 -7 3 -14 0 -14 -7 0 -7 -8 -9 -20 -5 -11 3 -20 3 -20 -2 0 -5
-13 -17 -30 -26 -16 -10 -30 -24 -30 -30 -1 -7 -11 -25 -24 -40 -19 -23 -24
-26 -29 -13 -3 8 0 19 7 23 7 5 16 22 20 38 5 22 4 26 -4 15 -9 -13 -11 -13
-20 0 -7 12 0 18 32 31 29 11 44 25 54 48 8 18 23 35 33 38 11 3 24 18 30 34
7 19 17 29 30 29 12 0 26 9 33 19 12 19 28 19 28 0z m103 -16 c-22 -17 -27
-10 -13 17 10 18 14 20 21 9 6 -9 3 -18 -8 -26z m-393 7 c0 -5 -4 -10 -10 -10
-5 0 -10 5 -10 10 0 6 5 10 10 10 6 0 10 -4 10 -10z m755 -60 c-7 -23 12 -63
26 -55 5 4 9 19 9 36 0 16 4 29 9 29 4 0 5 -19 1 -42 -8 -42 2 -88 19 -88 11
0 36 -59 28 -67 -4 -3 -11 6 -16 21 -13 34 -41 35 -41 1 0 -14 -5 -25 -11 -25
-5 0 -7 -4 -4 -10 3 -6 -4 -10 -16 -10 -21 0 -21 1 -6 18 10 10 17 25 17 33 0
8 5 20 12 27 9 9 5 20 -18 49 -16 20 -34 34 -39 32 -6 -2 -9 -23 -7 -46 3 -37
0 -43 -16 -43 -26 0 -38 31 -18 45 8 6 14 18 14 26 -2 34 3 48 22 54 11 3 20
13 20 20 0 16 -43 31 -59 20 -6 -3 -11 1 -11 10 0 8 10 19 21 24 28 10 73 -31
64 -59z m-1792 46 c4 -10 1 -13 -9 -9 -15 6 -19 23 -5 23 5 0 11 -7 14 -14z
m127 -1 c0 -8 -7 -15 -16 -15 -14 0 -14 3 -4 15 7 8 14 15 16 15 2 0 4 -7 4
-15z m1492 -17 c-15 -15 -26 -4 -18 18 5 13 9 15 18 6 9 -9 9 -15 0 -24z
m-520 -20 c2 -13 9 -22 16 -20 9 2 12 -7 10 -25 -2 -21 -8 -28 -24 -28 -11 0
-29 -7 -40 -15 -12 -9 -15 -9 -7 -1 9 10 8 21 -5 47 -13 29 -14 37 -2 58 10
20 17 23 31 16 10 -6 19 -20 21 -32z m-102 -33 c-6 -15 -13 -25 -16 -22 -3 3
-1 14 5 25 6 12 12 31 12 44 2 21 2 21 6 2 2 -11 -1 -33 -7 -49z m690 30 c0
-41 -16 -46 -30 -9 -14 36 -13 44 10 44 16 0 20 -7 20 -35z m-1895 15 c3 -5 1
-10 -4 -10 -6 0 -11 5 -11 10 0 6 2 10 4 10 3 0 8 -4 11 -10z m805 0 c0 -5 -4
-10 -10 -10 -5 0 -10 5 -10 10 0 6 5 10 10 10 6 0 10 -4 10 -10z m810 6 c0 -3
-4 -8 -10 -11 -5 -3 -10 -1 -10 4 0 6 5 11 10 11 6 0 10 -2 10 -4z m64 -38
c-4 -13 -1 -24 7 -29 11 -6 9 -9 -7 -9 -29 0 -33 7 -21 40 12 32 32 30 21 -2z
m-1650 -3 c3 -8 1 -15 -4 -15 -6 0 -10 7 -10 15 0 8 2 15 4 15 2 0 6 -7 10
-15z m326 5 c0 -5 -2 -10 -4 -10 -3 0 -8 5 -11 10 -3 6 -1 10 4 10 6 0 11 -4
11 -10z m1396 -25 c-1 -33 -16 -33 -16 0 0 14 4 25 9 25 5 0 8 -11 7 -25z
m114 -5 c0 -11 7 -23 15 -26 20 -8 19 -24 0 -24 -9 0 -18 7 -21 15 -4 8 -12
15 -19 15 -8 0 -13 9 -12 20 2 27 37 27 37 0z m-1624 -17 c-3 -3 -13 -2 -23 2
-17 7 -17 8 2 15 19 7 34 -5 21 -17z m1379 17 c-3 -5 -12 -10 -18 -10 -7 0 -6
4 3 10 19 12 23 12 15 0z m-1802 -38 c18 -16 24 -77 8 -87 -14 -8 -81 54 -81
76 0 20 29 41 45 32 5 -3 18 -13 28 -21z m2943 -17 c-3 -9 -11 -13 -16 -10 -8
5 -7 11 1 21 14 18 24 11 15 -11z m-2463 0 c4 -8 2 -17 -4 -21 -11 -6 -39 13
-39 27 0 15 37 10 43 -6z m937 0 c0 -9 7 -26 16 -40 23 -35 20 -147 -4 -137
-8 3 -10 11 -6 21 13 31 16 61 7 61 -9 0 -20 -28 -38 -97 -6 -23 -25 -32 -25
-13 0 6 -11 10 -25 10 -35 0 -31 17 6 25 33 8 34 31 0 28 -29 -4 -26 13 10 54
21 24 29 42 25 56 -5 21 9 47 25 47 5 0 9 -7 9 -15z m598 -10 c-3 -3 -9 2 -12
12 -6 14 -5 15 5 6 7 -7 10 -15 7 -18z m1032 0 c17 -20 -9 -21 -36 0 -19 14
-19 14 2 15 12 0 27 -7 34 -15z m-1050 -17 c0 -6 -6 -5 -15 2 -8 7 -15 14 -15
16 0 2 7 1 15 -2 8 -4 15 -11 15 -16z m-70 -3 c0 -8 -4 -15 -9 -15 -13 0 -22
16 -14 24 11 11 23 6 23 -9z m-1424 -4 c11 9 14 8 14 -8 0 -10 -6 -28 -14 -38
-13 -18 -14 -18 -26 4 -9 17 -18 22 -36 18 -28 -5 -31 1 -7 18 12 9 23 10 36
3 13 -6 23 -6 33 3z m1102 -42 c4 -40 -12 -30 -22 14 -5 21 -3 28 6 25 7 -3
14 -20 16 -39z m92 11 c-20 -13 -50 -12 -50 1 0 6 8 8 19 4 11 -3 22 -1 26 5
4 6 10 9 13 5 4 -3 0 -10 -8 -15z m615 10 c-3 -5 -11 -10 -16 -10 -6 0 -7 5
-4 10 3 6 11 10 16 10 6 0 7 -4 4 -10z m-185 -26 c0 -12 -4 -12 -20 -2 -11 7
-20 16 -20 19 0 4 9 5 20 2 11 -3 20 -12 20 -19z m-175 -4 c3 -5 1 -10 -4 -10
-6 0 -11 5 -11 10 0 6 2 10 4 10 3 0 8 -4 11 -10z m95 2 c0 -14 -36 -43 -43
-35 -4 3 0 15 10 25 17 19 33 24 33 10z m-907 -34 c-5 -26 -23 -40 -23 -18 0
10 23 51 26 47 1 -1 0 -14 -3 -29z m677 22 c0 -5 -5 -10 -11 -10 -5 0 -7 5 -4
10 3 6 8 10 11 10 2 0 4 -4 4 -10z m500 -10 c0 -5 -4 -10 -10 -10 -5 0 -10 5
-10 10 0 6 5 10 10 10 6 0 10 -4 10 -10z m-750 -15 c0 -9 -8 -19 -17 -22 -22
-8 -33 -23 -33 -43 1 -12 4 -11 14 3 16 20 30 8 20 -17 -3 -9 -1 -16 5 -16 13
0 31 33 31 59 0 33 17 33 34 0 12 -24 13 -34 3 -50 -19 -32 -96 -38 -109 -9
-5 13 -7 12 -7 -2 -1 -9 4 -20 9 -23 8 -5 8 -11 0 -20 -8 -10 -8 -15 0 -20 7
-4 18 2 26 14 18 26 34 27 34 4 -1 -21 -46 -57 -60 -48 -6 3 -10 13 -10 21 0
17 -17 19 -23 2 -3 -10 -9 -9 -22 4 -13 12 -14 16 -4 16 41 -2 51 2 40 16 -14
16 -6 56 18 101 24 44 51 60 51 30z m198 -3 c2 -7 -7 -12 -22 -12 -27 0 -35
15 -13 23 17 7 30 3 35 -11z m112 -2 c8 -5 11 -12 7 -16 -4 -4 -15 0 -24 9
-18 18 -8 23 17 7z m-1340 -20 c6 -11 7 -20 1 -20 -17 0 -61 27 -54 33 13 14
43 6 53 -13z m1120 16 c0 -3 -4 -8 -10 -11 -5 -3 -10 -1 -10 4 0 6 5 11 10 11
6 0 10 -2 10 -4z m443 -21 c-8 -22 -22 -18 -16 5 3 11 9 17 14 15 4 -3 6 -12
2 -20z m145 7 c2 -7 -3 -12 -12 -12 -9 0 -16 7 -16 16 0 17 22 14 28 -4z m154
-24 c-7 -7 -12 -8 -12 -2 0 6 3 14 7 17 3 4 9 5 12 2 2 -3 -1 -11 -7 -17z
m-1242 -19 c0 -3 -11 -4 -25 -1 -14 2 -25 10 -25 17 0 10 5 11 25 2 14 -7 25
-15 25 -18z m570 -19 c0 -5 -6 -10 -14 -10 -8 0 -18 5 -21 10 -3 6 3 10 14 10
12 0 21 -4 21 -10z m-67 -16 c8 -9 -21 -64 -33 -64 -13 0 -13 12 0 44 9 26 21
32 33 20z m167 -6 c0 -4 -7 -8 -15 -8 -8 0 -15 4 -15 8 0 5 7 9 15 9 8 0 15
-4 15 -9z m-983 -4 c-3 -3 -12 -4 -19 -1 -8 3 -5 6 6 6 11 1 17 -2 13 -5z
m-347 -24 c0 -5 -7 -10 -15 -10 -8 0 -15 5 -15 10 0 6 7 10 15 10 8 0 15 -4
15 -10z m232 -20 c5 -34 -7 -41 -15 -8 -5 19 -2 38 7 38 2 0 6 -13 8 -30z
m-302 10 c0 -5 -5 -10 -11 -10 -5 0 -7 5 -4 10 3 6 8 10 11 10 2 0 4 -4 4 -10z
m388 -69 c-12 -4 -58 47 -58 63 0 6 15 -5 34 -24 18 -19 29 -37 24 -39z m615
54 c-3 -9 -8 -14 -10 -11 -3 3 -2 9 2 15 9 16 15 13 8 -4z m-426 -17 c-3 -8
-6 -5 -6 6 -1 11 2 17 5 13 3 -3 4 -12 1 -19z m-132 -17 c-3 -12 -13 -21 -21
-21 -12 0 -12 4 3 24 21 28 28 26 18 -3z m235 2 c0 -5 -5 -15 -10 -23 -8 -12
-10 -11 -10 8 0 12 5 22 10 22 6 0 10 -3 10 -7z m493 -5 c4 -10 7 -10 18 0 15
13 29 16 29 5 0 -5 -13 -15 -29 -24 -26 -15 -29 -15 -39 2 -15 24 -15 29 2 29
8 0 16 -6 19 -12z m-877 -23 c4 -8 12 -15 19 -15 15 0 31 -38 21 -47 -3 -4 -6
1 -6 9 0 18 -41 32 -50 17 -4 -6 -16 -6 -30 -1 l-23 9 21 21 c26 26 40 28 48
7z m204 -6 c0 -5 -7 -9 -15 -9 -9 0 -12 6 -9 15 6 15 24 11 24 -6z m-517 -36
c11 -15 -1 -17 -21 -5 -8 5 -10 16 -6 27 6 15 9 16 12 4 3 -7 9 -20 15 -26z
m182 27 c4 -6 14 -9 23 -8 9 2 18 -5 20 -14 2 -13 -2 -15 -19 -11 -21 6 -22 4
-16 -35 4 -22 3 -43 -2 -46 -5 -3 -7 -15 -4 -27 5 -17 2 -20 -18 -17 -17 2
-25 11 -30 36 -9 45 -29 65 -30 32 -1 -23 -1 -23 -9 4 -5 16 -7 33 -4 38 9 15
34 8 34 -9 0 -9 3 -13 7 -9 4 3 13 -4 20 -16 11 -20 12 -16 8 35 -4 52 4 72
20 47z m241 -4 c18 -19 18 -19 -12 -63 -15 -21 -23 -29 -19 -18 4 11 7 28 7
38 -1 13 4 17 14 13 10 -4 14 -1 11 6 -2 7 -11 12 -20 10 -11 -2 -15 2 -11 13
8 19 12 19 30 1z m118 -11 c-4 -8 -8 -15 -10 -15 -2 0 -4 7 -4 15 0 8 4 15 10
15 5 0 7 -7 4 -15z m901 5 c3 -5 1 -10 -4 -10 -6 0 -11 5 -11 10 0 6 2 10 4
10 3 0 8 -4 11 -10z m-1385 -19 c0 -18 -18 -21 -30 -6 -10 13 -9 15 9 15 11 0
21 -4 21 -9z m2335 -1 c-3 -5 -11 -10 -16 -10 -6 0 -7 5 -4 10 3 6 11 10 16
10 6 0 7 -4 4 -10z m-1824 -34 c-9 -11 -9 -15 1 -19 7 -2 10 -8 6 -12 -10 -10
-28 3 -28 21 0 18 24 46 28 33 2 -5 -1 -16 -7 -23z m1194 -3 c-2 -7 2 -13 11
-13 11 0 12 4 4 19 -13 25 -13 34 1 29 21 -7 20 -57 -1 -68 -25 -13 -30 -13
-30 4 0 8 -7 16 -15 20 -8 3 -15 14 -15 25 0 17 3 18 25 8 14 -7 23 -18 20
-24z m-1493 5 c-7 -7 -12 -8 -12 -2 0 6 3 14 7 17 3 4 9 5 12 2 2 -3 -1 -11
-7 -17z m-322 -12 c0 -15 -18 -31 -26 -23 -7 7 7 37 17 37 5 0 9 -6 9 -14z
m126 -42 c13 -12 24 -26 24 -33 0 -6 5 -11 10 -11 6 0 10 5 10 12 0 6 3 8 7 4
4 -4 8 -35 9 -69 l2 -63 -30 28 c-25 23 -28 32 -23 62 6 28 3 36 -13 45 -12 6
-30 11 -41 11 -24 0 -29 32 -8 54 10 12 13 11 21 -3 5 -9 19 -26 32 -37z
m1240 30 c8 3 14 1 14 -4 0 -6 -11 -10 -25 -10 -14 0 -25 6 -25 13 0 21 15 31
18 12 2 -9 10 -14 18 -11z m-1000 -11 c-10 -10 -19 5 -10 18 6 11 8 11 12 0 2
-7 1 -15 -2 -18z m199 8 c3 -11 12 -22 20 -25 19 -7 20 -36 1 -36 -8 0 -20 15
-27 33 -7 17 -14 35 -17 40 -2 4 1 7 6 7 6 0 13 -9 17 -19z m119 4 c3 -8 1
-15 -4 -15 -6 0 -10 7 -10 15 0 8 2 15 4 15 2 0 6 -7 10 -15z m963 -43 c-11
-41 -20 -51 -31 -33 -3 5 1 14 9 21 8 7 12 16 9 22 -5 8 15 42 22 36 1 -2 -3
-22 -9 -46z m730 26 c-3 -8 -6 -5 -6 6 -1 11 2 17 5 13 3 -3 4 -12 1 -19z
m-579 -34 c6 3 13 2 17 -4 11 -18 43 -11 63 15 15 18 23 22 28 13 4 -6 2 -14
-4 -16 -7 -2 -12 -8 -12 -14 0 -18 -41 -63 -63 -68 -16 -4 -23 -15 -25 -38 -3
-30 4 -37 31 -33 4 0 7 -6 7 -15 0 -9 6 -14 13 -11 6 2 23 -4 36 -14 23 -18
24 -18 67 6 46 26 74 32 74 16 0 -5 -8 -12 -17 -15 -13 -5 -14 -9 -4 -19 9 -9
14 -9 20 1 5 9 15 10 32 3 29 -10 59 2 59 24 0 8 7 15 15 15 8 0 15 -4 15 -10
0 -5 7 -10 16 -10 8 0 12 5 9 10 -3 6 0 10 7 10 8 0 19 5 25 11 7 7 53 12 111
13 70 1 95 -2 85 -9 -18 -14 -6 -45 17 -45 10 0 20 9 23 20 4 17 14 20 60 20
36 0 59 5 67 15 18 22 33 19 75 -15 22 -18 50 -30 66 -30 25 0 29 -4 29 -29 0
-16 5 -42 10 -56 8 -22 6 -34 -9 -59 -21 -33 -94 -81 -110 -72 -5 3 -20 -4
-35 -15 -22 -17 -26 -28 -26 -71 0 -56 -19 -88 -53 -88 -20 0 -20 3 -2 95 5
27 2 32 -27 45 -29 13 -33 19 -30 48 2 17 0 32 -5 32 -11 0 -39 -62 -34 -75 2
-5 5 -30 7 -54 1 -24 8 -47 14 -51 15 -9 10 -148 -7 -187 -16 -36 -11 -53 17
-53 10 0 20 10 24 24 13 53 154 164 190 150 9 -3 19 -18 22 -33 3 -14 7 -36
10 -47 6 -34 -22 -89 -76 -149 -44 -48 -50 -61 -50 -98 0 -24 -5 -48 -12 -55
-15 -15 -50 -16 -64 -2 -7 7 -25 7 -50 2 -38 -8 -39 -8 -42 -57 -3 -49 -23
-85 -48 -85 -6 0 -22 11 -35 25 -30 31 -52 31 -114 -1 -27 -14 -68 -27 -90
-30 -35 -5 -44 -2 -69 25 -37 39 -38 78 -2 125 22 29 32 35 51 30 15 -4 41 2
68 15 24 11 56 22 73 23 43 3 71 25 85 65 11 33 9 37 -22 69 -18 19 -38 34
-45 34 -24 0 -64 42 -88 93 -13 28 -38 62 -55 75 -18 13 -31 32 -31 45 0 23
-56 101 -91 125 -12 8 -45 14 -80 15 -43 0 -59 4 -59 14 0 30 -32 25 -69 -11
-32 -31 -42 -36 -66 -30 -15 4 -37 7 -48 8 -33 2 -42 66 -17 116 18 35 24 39
61 42 36 3 43 7 46 27 2 13 -2 30 -8 37 -9 11 -8 14 5 14 9 0 16 7 16 15 0 8
-5 15 -11 15 -6 0 -8 9 -4 21 5 15 2 22 -13 26 -20 5 -20 5 0 40 16 25 18 37
9 46 -6 6 -11 20 -11 32 0 18 3 17 23 -9 13 -16 29 -26 35 -22z m-1485 21 c4
-8 2 -17 -3 -20 -6 -4 -10 3 -10 14 0 25 6 27 13 6z m-293 -23 c0 -15 -2 -15
-10 -2 -13 20 -13 33 0 25 6 -3 10 -14 10 -23z m317 -4 c-3 -8 -6 -5 -6 6 -1
11 2 17 5 13 3 -3 4 -12 1 -19z m1007 6 c3 -8 2 -12 -4 -9 -6 3 -10 10 -10 16
0 14 7 11 14 -7z m256 2 c0 -2 -7 -6 -15 -10 -8 -3 -15 -1 -15 4 0 6 7 10 15
10 8 0 15 -2 15 -4z m-1070 -16 c0 -5 -2 -10 -4 -10 -3 0 -8 5 -11 10 -3 6 -1
10 4 10 6 0 11 -4 11 -10z m380 -5 c0 -9 -9 -15 -25 -15 -18 0 -25 -5 -25 -19
0 -10 -7 -24 -15 -31 -9 -8 -13 -21 -9 -36 4 -15 2 -24 -6 -24 -8 0 -11 13 -8
40 2 22 -1 42 -7 44 -5 2 0 5 11 5 12 1 24 8 28 16 4 12 30 28 54 34 1 1 2 -6
2 -14z m650 -4 c0 -3 -4 -12 -9 -19 -6 -10 -10 -10 -20 2 -15 18 -6 37 14 29
8 -3 15 -8 15 -12z m150 10 c0 -5 -4 -11 -10 -13 -6 -2 -7 -24 -4 -55 5 -36
10 -50 19 -47 16 7 29 -12 15 -21 -5 -3 -10 -19 -10 -34 0 -23 -5 -30 -26 -34
-16 -3 -28 0 -31 10 -4 11 -8 10 -20 -4 -13 -16 -14 -14 -9 20 3 21 1 37 -5
37 -6 0 -7 5 -4 10 3 6 7 28 7 51 0 38 1 39 15 19 8 -12 13 -30 10 -42 -7 -23
12 -58 30 -58 7 0 13 7 13 15 0 8 -4 15 -10 15 -5 0 -10 18 -10 39 0 22 -5 41
-11 43 -15 5 10 58 28 58 7 0 13 -4 13 -9z m-726 -19 c14 8 17 7 13 -3 -2 -8
-10 -13 -16 -11 -6 1 -11 -5 -11 -13 0 -21 -17 -19 -30 4 -14 28 -13 33 8 22
11 -6 24 -6 36 1z m520 -27 c4 -16 11 -22 21 -19 24 10 17 -13 -10 -34 -14
-11 -25 -27 -25 -35 0 -26 -18 -29 -22 -5 -2 13 5 32 14 42 24 27 23 45 -2 39
-20 -5 -25 4 -14 31 8 21 31 9 38 -19z m96 25 c0 -5 -5 -10 -11 -10 -5 0 -7 5
-4 10 3 6 8 10 11 10 2 0 4 -4 4 -10z m-1337 -47 c-8 -20 -23 -4 -23 25 0 24
1 25 14 7 8 -11 12 -25 9 -32z m171 26 c-3 -5 -10 -7 -15 -3 -5 3 -7 10 -3 15
3 5 10 7 15 3 5 -3 7 -10 3 -15z m-774 -23 c0 -24 -5 -35 -17 -38 -30 -8 -43
2 -43 32 0 16 -6 30 -12 32 -7 3 6 5 30 6 41 2 42 1 42 -32z m650 30 c0 -3 -4
-8 -10 -11 -5 -3 -10 -1 -10 4 0 6 5 11 10 11 6 0 10 -2 10 -4z m439 -18 c0
-13 -4 -41 -8 -63 -8 -39 -8 -39 -18 -15 -7 15 -7 29 -2 35 14 14 11 35 -6 35
-8 0 -15 7 -15 15 0 9 9 15 25 15 19 0 25 -5 24 -22z m-793 -57 c12 -29 26
-57 33 -64 6 -6 11 -19 11 -28 0 -26 21 -35 35 -16 16 23 22 22 51 -10 19 -22
23 -35 18 -62 -7 -45 15 -119 39 -127 18 -6 46 19 47 41 0 6 20 11 45 11 46 2
57 -10 33 -35 -11 -10 -10 -14 5 -22 9 -6 17 -21 17 -34 0 -14 5 -25 10 -25
15 0 12 -36 -5 -50 -8 -7 -21 -10 -29 -7 -7 3 -18 1 -24 -5 -6 -6 -12 -6 -16
1 -4 6 -16 11 -27 11 -10 0 -19 4 -19 10 0 15 -41 33 -52 22 -5 -5 3 -23 23
-46 29 -32 37 -35 67 -30 32 6 33 6 21 -15 -9 -13 -20 -19 -31 -16 -12 5 -15
1 -11 -13 2 -11 -1 -23 -8 -27 -7 -5 -10 -4 -6 2 4 6 0 13 -8 17 -8 3 -17 1
-20 -4 -15 -25 -36 4 -40 55 -1 12 -9 20 -21 20 -17 0 -19 -6 -16 -62 4 -61 3
-63 -24 -73 -55 -21 -72 16 -33 69 19 25 19 32 8 70 -11 36 -18 43 -52 53 -22
7 -35 14 -30 15 22 8 1 43 -24 43 -22 0 -24 -2 -13 -15 11 -13 10 -14 -4 -9
-9 3 -17 10 -17 15 -2 13 -6 29 -9 32 -5 6 -12 45 -13 77 -1 21 -11 45 -24 60
-14 14 -23 36 -23 56 0 20 -8 41 -20 52 -23 22 -18 61 6 42 7 -7 25 -10 40 -8
22 2 33 13 49 46 11 23 24 41 30 39 5 -2 19 -27 31 -56z m1644 55 c0 -3 -4 -8
-10 -11 -5 -3 -10 -1 -10 4 0 6 5 11 10 11 6 0 10 -2 10 -4z m-1043 -28 c-3
-8 -6 -5 -6 6 -1 11 2 17 5 13 3 -3 4 -12 1 -19z m128 -47 c0 -54 -10 -66 -38
-46 -22 16 -22 32 3 47 11 7 20 16 20 21 0 4 -4 6 -9 2 -5 -3 -13 -1 -16 5 -4
6 -15 8 -25 5 -10 -3 -20 0 -23 9 -4 11 4 13 41 11 l47 -3 0 -51z m1159 44
c-4 -8 -8 -15 -10 -15 -2 0 -4 7 -4 15 0 8 4 15 10 15 5 0 7 -7 4 -15z m-1523
-18 c-10 -9 -11 -8 -5 6 3 10 9 15 12 12 3 -3 0 -11 -7 -18z m1106 4 c-1 -12
-7 -17 -19 -13 -23 6 -23 19 0 25 9 3 18 5 19 6 1 0 1 -7 0 -18z m136 -13 c-6
-31 -23 -38 -23 -10 0 16 20 46 26 39 1 -1 0 -14 -3 -29z m1667 -34 c0 -34
-20 -54 -54 -54 -22 0 -20 22 5 70 17 33 24 38 35 29 8 -6 14 -26 14 -45z
m-2323 40 c-3 -3 1 -23 8 -45 17 -47 13 -49 -14 -10 -21 28 -19 61 2 61 6 0 8
-3 4 -6z m33 -4 c0 -5 -2 -10 -4 -10 -3 0 -8 5 -11 10 -3 6 -1 10 4 10 6 0 11
-4 11 -10z m-379 -33 c-8 -8 -11 -7 -11 4 0 9 3 19 7 23 4 4 9 2 11 -4 3 -7
-1 -17 -7 -23z m-794 -9 c-3 -7 -5 -2 -5 12 0 14 2 19 5 13 2 -7 2 -19 0 -25z
m1083 2 c0 -5 -5 -10 -11 -10 -5 0 -7 5 -4 10 3 6 8 10 11 10 2 0 4 -4 4 -10z
m700 -84 c0 -9 -7 -16 -15 -16 -9 0 -15 9 -15 24 0 14 -4 28 -10 31 -5 3 -10
16 -10 28 0 18 4 16 25 -15 14 -20 25 -44 25 -52z m-780 44 c0 -5 -7 -10 -16
-10 -8 0 -12 5 -9 10 3 6 10 10 16 10 5 0 9 -4 9 -10z m110 1 c0 -6 -4 -13
-10 -16 -5 -3 -10 1 -10 9 0 9 5 16 10 16 6 0 10 -4 10 -9z m720 -17 c0 -8 -7
-14 -15 -14 -17 0 -18 2 -9 24 7 18 24 12 24 -10z m1535 -53 c30 -48 15 -91
-31 -91 -42 0 -52 9 -47 42 10 62 21 80 46 72 12 -3 27 -14 32 -23z m-3535 4
c9 -11 9 -15 1 -15 -7 0 -9 -5 -5 -11 4 -7 20 -8 42 -4 24 4 38 2 43 -7 12
-18 11 -31 -1 -23 -10 6 8 -54 21 -69 18 -20 -40 -102 -65 -93 -13 5 -36 78
-36 114 0 10 -9 27 -21 36 -12 11 -18 25 -15 33 3 9 6 24 6 35 0 23 13 25 30
4z m1183 -20 c-3 -9 -8 -14 -10 -11 -3 3 -2 9 2 15 9 16 15 13 8 -4z m447 -35
c0 -5 -4 -10 -10 -10 -5 0 -10 5 -10 10 0 6 5 10 10 10 6 0 10 -4 10 -10z
m-374 -30 c13 0 13 -2 0 -16 -9 -8 -16 -21 -16 -27 0 -6 -8 -3 -17 7 -13 13
-15 20 -5 23 6 3 13 14 13 26 1 17 2 18 6 5 2 -10 11 -18 19 -18z m554 9 c0
-6 -4 -7 -10 -4 -5 3 -10 11 -10 16 0 6 5 7 10 4 6 -3 10 -11 10 -16z m-375 1
c-4 -6 -1 -18 6 -26 10 -12 9 -19 -9 -37 -12 -12 -22 -16 -22 -9 0 7 5 12 10
12 6 0 10 9 10 20 0 11 -4 20 -10 20 -5 0 -10 7 -10 15 0 8 7 15 16 15 8 0 12
-5 9 -10z m209 -19 c-4 -20 -1 -30 10 -34 9 -4 13 -13 10 -21 -5 -12 -8 -12
-25 2 -21 19 -24 35 -9 63 15 27 20 24 14 -10z m-278 -7 c-3 -9 -6 -18 -6 -20
0 -3 -4 -3 -10 1 -11 7 -2 35 12 35 6 0 7 -7 4 -16z m404 6 c0 -5 -4 -10 -10
-10 -5 0 -10 5 -10 10 0 6 5 10 10 10 6 0 10 -4 10 -10z m87 -12 c-3 -8 -6 -5
-6 6 -1 11 2 17 5 13 3 -3 4 -12 1 -19z m-140 -20 c-3 -8 -6 -5 -6 6 -1 11 2
17 5 13 3 -3 4 -12 1 -19z m1615 -1 c-7 -8 -9 -17 -5 -20 3 -4 -4 -7 -17 -7
l-23 0 23 25 c24 25 42 27 22 2z m-2582 -18 c0 -6 -4 -7 -10 -4 -5 3 -10 -1
-10 -9 0 -9 -4 -16 -9 -16 -11 0 -9 19 2 38 9 13 27 7 27 -9z m576 -36 c-10
-10 -19 5 -10 18 6 11 8 11 12 0 2 -7 1 -15 -2 -18z m-117 -30 c5 -10 9 -35 9
-55 0 -34 -3 -38 -25 -38 -13 0 -31 6 -39 14 -15 16 -19 46 -6 46 5 0 14 11
20 25 14 29 28 32 41 8z m411 -84 c0 7 5 9 11 5 13 -8 3 -70 -17 -101 -18 -29
-4 -37 52 -28 37 5 43 4 38 -9 -8 -20 27 -22 59 -3 31 18 77 15 90 -5 9 -14 6
-22 -13 -43 -16 -17 -19 -24 -8 -20 9 4 19 13 22 21 3 8 17 14 31 14 27 0 32
-18 14 -51 -6 -12 -8 -28 -5 -36 6 -14 8 -14 24 1 10 9 24 16 31 16 6 0 14 14
18 30 3 17 11 30 19 30 7 0 16 9 19 21 6 18 12 20 43 14 21 -4 38 -10 40 -14
1 -4 19 7 38 26 19 18 42 33 51 33 15 0 14 -3 -3 -46 -3 -6 5 -15 18 -21 19
-8 23 -18 24 -62 1 -46 -2 -54 -22 -63 -15 -7 -24 -23 -29 -47 -3 -20 -8 -43
-11 -52 -3 -9 2 -23 10 -32 20 -19 14 -51 -10 -55 -38 -5 -99 -26 -106 -37
-18 -25 22 -85 57 -85 46 0 74 -71 35 -90 -44 -22 -105 -44 -138 -49 -30 -5
-38 -11 -40 -31 -7 -55 -23 -80 -53 -80 -46 0 -53 29 -35 134 12 66 21 92 36
103 12 9 20 25 20 44 0 19 5 29 15 29 24 0 17 29 -10 42 -17 7 -28 8 -37 1 -7
-6 -32 -14 -56 -18 -41 -7 -43 -6 -56 26 -8 18 -12 38 -9 45 2 7 -6 19 -19 28
-16 12 -24 27 -25 54 -3 65 -15 112 -28 112 -6 0 -20 8 -29 19 -21 23 -130 56
-172 52 -18 -1 -35 3 -39 9 -4 6 -17 15 -29 20 -20 7 -23 16 -23 70 -1 46 2
60 12 56 7 -2 17 0 22 5 6 6 14 4 23 -6 7 -8 19 -15 26 -15 8 0 19 -9 26 -20
18 -29 44 -25 54 8 4 15 6 31 5 36 -1 5 1 16 4 25 6 14 8 14 21 -3 8 -11 14
-14 14 -7z m-290 1 c0 -5 -4 -10 -10 -10 -5 0 -10 5 -10 10 0 6 5 10 10 10 6
0 10 -4 10 -10z m-50 -9 c0 -6 -4 -13 -10 -16 -5 -3 -10 1 -10 9 0 9 5 16 10
16 6 0 10 -4 10 -9z m-658 -121 c7 -11 19 -20 26 -20 7 0 10 -4 7 -10 -10 -16
-45 -12 -45 5 0 8 -4 15 -10 15 -5 0 -10 7 -10 15 0 21 18 19 32 -5z m777 -13
c6 -8 8 -17 4 -20 -7 -8 -33 11 -33 24 0 13 16 11 29 -4z m-486 -67 c3 -13 0
-20 -9 -20 -8 0 -14 10 -14 26 0 28 15 25 23 -6z m-133 -21 c0 -10 -4 -19 -9
-19 -12 0 -23 29 -15 41 8 14 24 0 24 -22z m320 -69 c17 -22 40 -40 50 -40 24
0 23 -39 -2 -60 -10 -9 -18 -32 -19 -60 -4 -95 23 -136 73 -108 13 7 27 11 32
10 17 -5 56 8 56 18 0 6 -11 10 -25 10 -31 0 -52 37 -58 103 -3 43 -2 48 20
53 12 4 29 4 37 1 7 -3 18 -1 23 4 7 7 32 0 72 -18 66 -30 85 -59 60 -91 -23
-28 -36 -56 -44 -90 -4 -22 -15 -36 -32 -43 -14 -5 -27 -18 -30 -28 -9 -35
-93 -43 -120 -11 -16 18 -18 18 -35 3 -10 -9 -40 -18 -67 -21 -42 -4 -51 -1
-60 16 -9 17 -14 18 -51 9 -29 -8 -46 -8 -58 -1 -22 14 -27 40 -10 58 7 8 21
23 30 35 23 27 33 27 65 -5 25 -26 27 -26 40 -8 9 12 12 30 8 49 -16 75 -12
89 24 101 24 8 35 18 36 32 3 35 -8 43 -42 33 -25 -7 -33 -6 -37 6 -9 23 -7
53 4 53 6 0 10 7 10 15 0 25 17 17 50 -25z m-746 -28 c9 -14 -37 -92 -54 -92
-28 0 -29 10 -3 56 23 41 45 55 57 36z m475 -218 c32 -30 22 -39 -31 -28 -37
8 -43 13 -46 37 -3 26 -1 27 25 21 15 -3 39 -17 52 -30z m777 -219 c10 -8 34
-15 52 -15 30 0 33 -2 30 -27 -2 -22 -10 -29 -36 -34 -18 -4 -43 -16 -55 -26
-34 -31 -53 -34 -73 -12 -17 19 -17 22 11 74 30 58 40 64 71 40z"/>
<path d="M3472 5043 c-19 -4 -21 -7 -11 -19 15 -19 22 -18 37 6 7 11 9 19 5
19 -5 -1 -18 -4 -31 -6z"/>
<path d="M3380 4891 c0 -5 7 -11 15 -15 8 -3 15 -14 15 -25 0 -11 5 -23 11
-27 15 -9 0 58 -15 68 -15 10 -26 10 -26 -1z"/>
<path d="M3520 4706 c0 -19 4 -24 15 -19 18 6 16 34 -2 41 -8 2 -13 -6 -13
-22z"/>
<path d="M3434 4694 c9 -36 14 -40 27 -27 16 16 7 47 -15 51 -16 3 -18 0 -12
-24z"/>
<path d="M3515 4660 c3 -5 8 -10 11 -10 2 0 4 5 4 10 0 6 -5 10 -11 10 -5 0
-7 -4 -4 -10z"/>
<path d="M3663 4561 c1 -35 5 -51 14 -51 14 0 14 1 16 58 0 26 -4 38 -15 40
-13 2 -16 -7 -15 -47z"/>
<path d="M3547 4573 c-4 -3 -7 -15 -7 -25 0 -13 7 -18 25 -18 27 0 33 18 13
38 -14 14 -22 15 -31 5z"/>
<path d="M3760 4510 c0 -5 5 -10 11 -10 5 0 7 5 4 10 -3 6 -8 10 -11 10 -2 0
-4 -4 -4 -10z"/>
<path d="M3684 4455 c-4 -14 -4 -29 0 -32 9 -10 36 18 36 38 0 28 -29 23 -36
-6z"/>
<path d="M2755 4881 c-3 -5 -1 -12 5 -16 5 -3 10 1 10 9 0 18 -6 21 -15 7z"/>
<path d="M2820 4810 c0 -5 5 -10 10 -10 6 0 10 5 10 10 0 6 -4 10 -10 10 -5 0
-10 -4 -10 -10z"/>
<path d="M2850 4730 c0 -6 -7 -18 -15 -26 -8 -9 -15 -21 -15 -27 0 -9 2 -9 8
-1 4 7 16 13 27 15 22 5 28 40 8 47 -7 2 -13 -2 -13 -8z"/>
<path d="M2921 4691 c-8 -5 -11 -16 -7 -26 8 -21 19 -13 23 15 3 23 3 23 -16
11z"/>
<path d="M2792 4639 c2 -6 8 -10 13 -10 5 0 11 4 13 10 2 6 -4 11 -13 11 -9 0
-15 -5 -13 -11z"/>
<path d="M2660 4604 c0 -9 5 -14 12 -12 18 6 21 28 4 28 -9 0 -16 -7 -16 -16z"/>
<path d="M4481 4564 c0 -11 3 -14 6 -6 3 7 2 16 -1 19 -3 4 -6 -2 -5 -13z"/>
<path d="M4408 4343 c6 -2 12 -15 12 -28 0 -13 5 -27 10 -30 11 -7 13 24 4 49
-3 9 -14 16 -23 15 -10 0 -11 -2 -3 -6z"/>
<path d="M3075 4150 c3 -5 13 -10 21 -10 8 0 14 5 14 10 0 6 -9 10 -21 10 -11
0 -17 -4 -14 -10z"/>
<path d="M2920 4013 c0 -10 -3 -28 -6 -40 -5 -18 -2 -23 13 -23 11 0 28 9 38
20 10 11 25 20 32 20 8 0 13 6 10 13 -5 13 -11 13 -39 2 -13 -5 -18 -2 -18 9
0 9 -7 16 -15 16 -8 0 -15 -8 -15 -17z"/>
<path d="M2843 3976 c-33 -16 -30 -38 5 -30 37 9 42 13 42 30 0 16 -15 16 -47
0z"/>
<path d="M2955 3921 c-3 -5 -1 -12 5 -16 5 -3 10 1 10 9 0 18 -6 21 -15 7z"/>
<path d="M3675 3929 c-9 -13 2 -24 23 -25 47 -3 52 -5 52 -23 0 -25 11 -32 38
-24 21 5 21 6 -6 32 -26 25 -72 51 -92 51 -5 0 -12 -5 -15 -11z"/>
<path d="M3720 3851 c0 -5 -9 -11 -21 -14 -12 -3 -18 -10 -14 -17 5 -8 10 -8
20 0 9 8 14 6 19 -5 3 -8 14 -15 25 -15 11 0 21 -5 23 -12 3 -7 12 -9 22 -5 9
4 14 12 11 17 -4 6 -2 17 4 23 8 10 2 13 -26 13 -20 0 -38 5 -41 12 -4 14 -22
16 -22 3z"/>
<path d="M4172 3611 c2 -7 7 -12 11 -12 12 1 9 15 -3 20 -7 2 -11 -2 -8 -8z"/>
<path d="M4246 3515 c-11 -8 -16 -18 -11 -22 4 -5 10 -2 12 5 3 6 13 12 24 12
10 0 19 5 19 10 0 14 -22 12 -44 -5z"/>
<path d="M4048 3499 c-27 -15 -22 -39 7 -39 14 0 25 4 25 9 0 5 3 16 6 25 7
18 -12 21 -38 5z"/>
<path d="M3117 3524 c-14 -14 -6 -23 18 -20 14 2 26 7 28 12 3 11 -36 18 -46
8z"/>
<path d="M2006 3588 c-9 -28 -14 -58 -10 -58 13 0 44 37 44 52 0 20 -29 25
-34 6z"/>
<path d="M4595 3310 c-7 -12 2 -30 16 -30 5 0 9 9 9 20 0 21 -15 27 -25 10z"/>
<path d="M2356 3224 c-9 -23 7 -37 34 -29 13 4 20 13 18 23 -4 23 -44 28 -52
6z"/>
<path d="M2441 3164 c0 -11 3 -14 6 -6 3 7 2 16 -1 19 -3 4 -6 -2 -5 -13z"/>
<path d="M1172 3048 c-13 -13 -16 -38 -4 -38 9 1 52 36 52 44 0 11 -36 6 -48
-6z"/>
<path d="M1110 2946 c0 -18 27 -39 40 -31 7 4 7 12 0 26 -12 22 -40 26 -40 5z"/>
<path d="M4040 3004 c0 -11 6 -14 23 -9 35 11 38 20 6 22 -20 2 -29 -2 -29
-13z"/>
<path d="M4327 2830 c3 -11 9 -20 14 -20 11 0 11 3 3 24 -9 23 -23 20 -17 -4z"/>
<path d="M3962 2828 c5 -15 28 -18 29 -3 0 6 -7 12 -17 13 -10 3 -15 -1 -12
-10z"/>
<path d="M4237 2833 c-11 -11 -8 -23 6 -23 8 0 14 7 14 15 0 16 -9 19 -20 8z"/>
<path d="M4145 2820 c-3 -5 1 -10 9 -10 8 0 18 5 21 10 3 6 -1 10 -9 10 -8 0
-18 -4 -21 -10z"/>
<path d="M4022 2798 c-18 -18 -15 -25 13 -30 21 -4 25 -1 25 18 0 26 -19 31
-38 12z"/>
<path d="M4275 2800 c-3 -5 1 -10 10 -10 9 0 13 5 10 10 -3 6 -8 10 -10 10 -2
0 -7 -4 -10 -10z"/>
<path d="M4204 2756 c-6 -17 2 -36 17 -36 12 0 12 37 -1 45 -6 3 -13 -1 -16
-9z"/>
<path d="M4320 2745 c0 -9 5 -15 11 -13 6 2 11 8 11 13 0 5 -5 11 -11 13 -6 2
-11 -4 -11 -13z"/>
<path d="M4275 2739 c-4 -6 0 -18 9 -27 15 -15 16 -15 16 5 0 25 -15 38 -25
22z"/>
<path d="M4133 2725 c-9 -25 2 -27 22 -5 17 18 17 20 1 20 -9 0 -19 -7 -23
-15z"/>
<path d="M4147 2685 c-8 -19 13 -31 23 -14 9 14 4 29 -10 29 -4 0 -10 -7 -13
-15z"/>
<path d="M4176 2651 c-4 -5 -2 -12 3 -15 5 -4 12 -2 15 3 4 5 2 12 -3 15 -5 4
-12 2 -15 -3z"/>
<path d="M3773 2905 c0 -13 6 -30 14 -37 12 -10 18 -9 29 7 13 17 12 20 -6 27
-11 4 -20 12 -20 18 0 5 -4 10 -9 10 -5 0 -8 -11 -8 -25z"/>
<path d="M3630 2325 c0 -8 7 -15 15 -15 8 0 15 7 15 15 0 8 -7 15 -15 15 -8 0
-15 -7 -15 -15z"/>
<path d="M3600 2290 c0 -5 5 -10 10 -10 6 0 10 5 10 10 0 6 -4 10 -10 10 -5 0
-10 -4 -10 -10z"/>
<path d="M3684 2165 c4 -10 -1 -15 -14 -15 -11 0 -20 -4 -20 -10 0 -14 23 -12
45 3 10 8 15 19 11 25 -11 17 -29 15 -22 -3z"/>
<path d="M4065 2139 c-8 -23 -1 -34 14 -24 13 8 15 45 2 45 -5 0 -13 -9 -16
-21z"/>
<path d="M4170 2140 c0 -5 5 -10 11 -10 5 0 7 5 4 10 -3 6 -8 10 -11 10 -2 0
-4 -4 -4 -10z"/>
<path d="M3715 2108 c-11 -7 -26 -12 -34 -13 -8 0 -16 -6 -19 -14 -4 -11 3
-13 28 -7 35 6 60 22 60 37 0 12 -11 11 -35 -3z"/>
<path d="M3785 2079 c-9 -14 3 -59 15 -59 5 0 12 11 16 24 6 26 -1 46 -16 46
-5 0 -12 -5 -15 -11z"/>
<path d="M4020 2079 c0 -5 5 -7 10 -4 6 3 10 8 10 11 0 2 -4 4 -10 4 -5 0 -10
-5 -10 -11z"/>
<path d="M4190 2075 c0 -2 9 -19 20 -37 21 -35 26 -26 10 16 -8 22 -30 37 -30
21z"/>
<path d="M3715 2049 c-4 -11 -4 -23 0 -27 7 -7 25 17 25 36 0 20 -18 14 -25
-9z"/>
<path d="M3880 2060 c0 -5 5 -10 10 -10 6 0 10 5 10 10 0 6 -4 10 -10 10 -5 0
-10 -4 -10 -10z"/>
<path d="M3961 2049 c0 -8 -12 -25 -26 -37 -24 -21 -25 -57 -1 -49 17 5 38 55
33 80 -2 12 -5 15 -6 6z"/>
<path d="M4080 2039 c0 -9 -11 -33 -25 -53 -23 -34 -24 -39 -10 -65 11 -22 23
-30 52 -33 45 -6 55 0 87 58 l25 44 -29 15 c-16 8 -36 12 -46 8 -11 -4 -23 2
-35 18 -14 18 -19 20 -19 8z"/>
<path d="M1785 2010 c-3 -5 -1 -10 4 -10 6 0 11 5 11 10 0 6 -2 10 -4 10 -3 0
-8 -4 -11 -10z"/>
<path d="M2880 1750 c0 -15 22 -60 30 -60 16 0 18 15 4 41 -14 28 -34 39 -34
19z"/>
<path d="M3460 1616 c0 -14 5 -26 10 -26 6 0 10 7 10 15 0 8 0 18 1 22 0 4 -4
9 -10 11 -6 2 -11 -8 -11 -22z"/>
<path d="M3160 1596 c0 -22 3 -27 11 -19 8 8 8 16 0 30 -9 16 -10 14 -11 -11z"/>
<path d="M3218 1573 c0 -5 -2 -19 -4 -33 -1 -14 -5 -34 -8 -45 -7 -24 7 -50
23 -41 6 4 11 16 11 27 0 12 7 19 20 19 24 0 38 44 20 65 -13 15 -59 21 -62 8z"/>
</g>
</svg>
